<?xml version="1.0" encoding="UTF-8"?>
<svg xmlns="http://www.w3.org/2000/svg" width="96" height="96" viewBox="0 0 96 96">
  <title>3</title>
  <g id="Page-1" stroke="none" stroke-width="1" fill="none" fill-rule="evenodd">
    <g id="savings/how-to-apply" transform="translate(-781 -376)">
      <g id="3" transform="translate(781 376)">
        <path d="M57.554 49.843c-1.389-1.36-3.329-2.294-5.78-2.786 1.939-.559 3.548-1.527 4.793-2.881 1.536-1.67 2.314-3.752 2.314-6.186 0-3.109-1.002-5.554-2.979-7.27-1.963-1.703-4.767-2.566-8.336-2.566-2.159 0-4.323.368-6.43 1.097-2.106.728-3.935 1.732-5.434 2.986l-.255.21 1.666 2.28.281-.185c1.902-1.258 3.641-2.158 5.167-2.677 1.515-.513 3.216-.772 5.056-.772 2.326 0 4.23.614 5.657 1.826 1.427 1.212 2.122 2.786 2.122 4.81 0 2.474-.863 4.377-2.636 5.816-1.77 1.44-4.218 2.17-7.274 2.17h-4.509v3.199h4.459c3.72 0 6.566.662 8.463 1.965 1.882 1.293 2.797 3.092 2.797 5.502 0 2.699-.928 4.811-2.754 6.286-1.847 1.493-4.675 2.248-8.403 2.248-1.557 0-3.249-.216-5.022-.64-1.77-.425-3.391-1.018-4.815-1.764l-.519-.271v3.375l.195.096c2.911 1.456 6.364 2.195 10.264 2.195 4.6 0 8.184-1.009 10.653-3.002 2.492-2.01 3.757-4.878 3.757-8.523 0-2.72-.84-4.917-2.498-6.538" id="Fill-1" fill="#000"></path>
        <path d="M47.618 84.872c-20.317 0-36.844-16.527-36.844-36.843 0-20.315 16.527-36.842 36.844-36.842 20.315 0 36.843 16.527 36.843 36.842 0 20.316-16.528 36.843-36.843 36.843m0-76.653c-21.951 0-39.81 17.859-39.81 39.81 0 21.95 17.859 39.81 39.81 39.81 21.95 0 39.81-17.86 39.81-39.81 0-21.951-17.86-39.81-39.81-39.81m0 84.604c-24.7 0-44.794-20.095-44.794-44.794 0-24.7 20.094-44.793 44.794-44.793 24.699 0 44.794 20.093 44.794 44.793S72.317 92.823 47.618 92.823M47.852.418c-.079 0-.155-.006-.234-.006C21.361.412.001 21.773.001 48.029c0 .08.004.157.004.235.128 26.149 21.435 47.383 47.613 47.383.08 0 .155-.006.234-.006 26.07-.127 47.25-21.308 47.378-47.377 0-.078.006-.155.006-.235C95.236 21.851 74 .546 47.852.418" id="Fill-3" fill="#000"></path>
        <path d="M47.618 87.84c-21.951 0-39.81-17.86-39.81-39.81 0-21.951 17.859-39.81 39.81-39.81 21.95 0 39.81 17.859 39.81 39.81 0 21.95-17.86 39.81-39.81 39.81m0-84.605c-24.7 0-44.794 20.095-44.794 44.795 0 24.699 20.094 44.793 44.794 44.793 24.699 0 44.794-20.094 44.794-44.793 0-24.7-20.095-44.795-44.794-44.795" id="Fill-8" fill="#D7D925"></path>
      </g>
    </g>
  </g>
</svg>
