<?xml version="1.0" encoding="UTF-8"?>
<svg xmlns="http://www.w3.org/2000/svg" width="84" height="84" viewBox="0 0 84 84">
  <title>Magnify glass icon</title>
  <g id="Page-1" stroke="none" stroke-width="1" fill="none" fill-rule="evenodd">
    <g id="intermediaries" transform="translate(-1054 -853)">
      <g id="Group" transform="translate(-57 846.087)">
        <g id="RESOURCES" transform="translate(1052 7)">
          <g id="Magnify-glass-icon" transform="translate(59)">
            <path d="M54.848 11.6c0 .58-.47 1.05-1.052 1.05-9.6 0-17.41 7.812-17.41 17.412a1.05 1.05 0 1 1-2.102 0c0-10.76 8.753-19.513 19.512-19.513.582 0 1.052.471 1.052 1.051zm-1.052 41.145c-12.507 0-22.684-10.176-22.684-22.683 0-12.509 10.177-22.685 22.684-22.685 12.509 0 22.685 10.176 22.685 22.685 0 12.507-10.176 22.683-22.685 22.683zm0-47.471c-13.667 0-24.786 11.12-24.786 24.788 0 13.667 11.119 24.785 24.786 24.785 13.667 0 24.786-11.118 24.786-24.785 0-13.668-11.12-24.788-24.786-24.788zm0 52.745c-15.416 0-27.959-12.541-27.959-27.957 0-15.417 12.543-27.96 27.96-27.96 15.416 0 27.959 12.543 27.959 27.96 0 15.416-12.543 27.957-27.96 27.957zM27.68 62.604l-.256.255-6.425-6.425.255-.256a4.576 4.576 0 0 1 3.213-1.33 4.549 4.549 0 0 1 4.544 4.543 4.577 4.577 0 0 1-1.331 3.213zM9.858 80.424a4.508 4.508 0 0 1-3.212 1.332 4.548 4.548 0 0 1-4.544-4.545c0-1.213.472-2.353 1.33-3.212l.256-.257 6.426 6.428-.256.255zM53.796 0c-16.576 0-30.06 13.485-30.06 30.062 0 7.91 3.075 15.112 8.088 20.484l-3.468 3.468a6.61 6.61 0 0 0-3.89-1.269c-1.749 0-3.462.71-4.7 1.947L2.946 71.513v.001l-1 .999A6.603 6.603 0 0 0 0 77.21a6.653 6.653 0 0 0 6.646 6.646c1.775 0 3.443-.69 4.698-1.945l.999-1L29.165 64.09a6.602 6.602 0 0 0 1.947-4.7 6.603 6.603 0 0 0-1.27-3.89l3.47-3.467c5.372 5.012 12.574 8.09 20.484 8.09 16.576 0 30.06-13.486 30.06-30.061C83.857 13.485 70.373 0 53.797 0z" id="Magnify-glass" fill="#000"></path>
            <path d="M19.512 57.92l6.425 6.426-14.338 14.337-6.424-6.426L19.512 57.92zm34.284-3.072c-13.667 0-24.786-11.12-24.786-24.787S40.13 5.275 53.796 5.275c13.667 0 24.786 11.119 24.786 24.786 0 13.668-11.119 24.787-24.786 24.787zm0-52.746c-15.417 0-27.959 12.543-27.959 27.96 0 15.416 12.542 27.957 27.959 27.957s27.96-12.541 27.96-27.958c0-15.416-12.543-27.959-27.96-27.959z" id="Fill" fill="#21AAA4"></path>
          </g>
        </g>
      </g>
    </g>
  </g>
</svg>
