<svg version="1.1" id="Layer_1" xmlns="http://www.w3.org/2000/svg" x="0" y="0" viewBox="0 0 32 32" xml:space="preserve"><title>button/question</title><path fill="#FFF" d="M14.2 18.3v-.7c0-.6.1-1.1.4-1.6.3-.4.7-.9 1.4-1.4.6-.5 1.1-.8 1.3-1.1.2-.3.3-.6.3-1s-.1-.7-.4-.9c-.3-.2-.7-.3-1.2-.3-.9 0-2 .3-3.2.9l-1-2c1.3-.8 2.8-1.2 4.3-1.2 1.3 0 2.3.3 3 .9.8.6 1.1 1.4 1.1 2.5 0 .7-.2 1.3-.5 1.8s-.9 1.1-1.8 1.7c-.6.4-1 .8-1.1 1-.2.2-.2.5-.2.9v.6h-2.4zm-.3 3.1c0-.5.1-.9.4-1.2.3-.3.7-.4 1.2-.4s.9.1 1.2.4c.3.3.4.7.4 1.2s-.1.9-.4 1.2c-.3.3-.7.4-1.2.4s-.9-.1-1.2-.4c-.2-.3-.4-.7-.4-1.2z"/></svg>