<svg width="88" height="89" viewBox="0 0 88 89" version="1.1" xmlns="http://www.w3.org/2000/svg" xmlns:xlink="http://www.w3.org/1999/xlink"><title>icons/Tickmark</title><defs><path id="path-1" d="M0 .7H87.3v87.01H0z"/></defs><g id="icons/Tickmark" stroke="none" stroke-width="1" fill="none" fill-rule="evenodd"><g id="Group-6"><g id="Group-3" transform="translate(0 .59)"><mask id="mask-2" fill="#fff"><use xlink:href="#path-1"/></mask><path d="M34.183 65.248L16.57 47.694l5.946-5.929 10.752 10.716a1.298 1.298 0 0 0 1.83 0l26.305-26.22 5.948 5.928-33.168 33.06zm28.135-41.722a1.298 1.298 0 0 0-1.83 0L34.183 49.744 23.431 39.03a1.296 1.296 0 0 0-1.83 0l-7.776 7.752a1.285 1.285 0 0 0 0 1.823l19.443 19.38a1.293 1.293 0 0 0 1.83 0L70.096 33.1a1.285 1.285 0 0 0 0-1.823l-7.778-7.752zM43.65 85.13c-22.641 0-41.06-18.358-41.06-40.924 0-22.569 18.419-40.927 41.06-40.927 22.642 0 41.061 18.358 41.061 40.927 0 22.566-18.419 40.924-41.06 40.924zM43.65.7C19.581.699 0 20.216 0 44.206 0 68.193 19.581 87.71 43.65 87.71c24.067 0 43.649-19.517 43.649-43.504 0-23.99-19.582-43.507-43.65-43.507z" id="Fill-1" fill="#000" mask="url(#mask-2)"/></g><path d="M16.57 48.284l17.612 17.555 33.169-33.06-5.947-5.926-26.307 26.219a1.296 1.296 0 0 1-1.83 0l-10.75-10.716-5.948 5.928z" id="Fill-4" fill="#D7D925"/></g></g></svg>