<svg width="68" height="86" viewBox="0 0 68 86" version="1.1" xmlns="http://www.w3.org/2000/svg" xmlns:xlink="http://www.w3.org/1999/xlink"><title>Group 12</title><defs><path id="path-1" d="M.001.584H67.63V86H0z"/></defs><g id="Page-1" stroke="none" stroke-width="1" fill="none" fill-rule="evenodd"><g id="savings/how-to-apply" transform="translate(-666 -930)"><g id="Group-12" transform="translate(666 930)"><path d="M64.78 81.593c0 .698-.613 1.312-1.312 1.312H4.31c-.7 0-1.311-.614-1.311-1.312V39.309C3 38.612 3.612 38 4.31 38H63.469c.699 0 1.312.612 1.312 1.31v42.283z" id="Path" fill="#DFDD2F"/><g id="Group-6"><g id="Group-3"><mask id="mask-2" fill="#fff"><use xlink:href="#path-1"/></mask><path d="M64.815 81.863c0 .702-.616 1.318-1.318 1.318H4.13c-.701 0-1.314-.616-1.314-1.318V39.38c0-.7.613-1.315 1.314-1.315H63.497c.702 0 1.318.615 1.318 1.315v42.483zM43.863 20.51v14.734H23.77V20.511c0-5.546 4.504-10.058 10.045-10.058 5.54 0 10.048 4.512 10.048 10.058zm-27.134 0c0-9.433 7.664-17.107 17.086-17.107 9.424 0 17.088 7.674 17.088 17.107v14.734H46.68V20.511c0-7.101-5.77-12.877-12.864-12.877-7.093 0-12.862 5.776-12.862 12.877v14.734H16.73V20.511zm46.768 14.734H53.72V20.511C53.72 9.523 44.79.584 33.815.584c-10.976 0-19.903 8.939-19.903 19.927v14.734h-9.78c-2.24 0-4.13 1.894-4.13 4.135v42.483c0 2.243 1.89 4.138 4.13 4.138h59.365c2.241 0 4.134-1.895 4.134-4.138V39.38c0-2.241-1.893-4.135-4.134-4.135z" id="Fill-1" fill="#1C1C1B" mask="url(#mask-2)"/></g><path d="M33.501 63.064c-2.553 0-4.63-2.065-4.63-4.606 0-2.538 2.077-4.603 4.63-4.603 2.55 0 4.629 2.065 4.629 4.603 0 2.54-2.078 4.606-4.629 4.606m0-12.064C29.364 51 26 54.346 26 58.458c0 3.626 2.616 6.647 6.066 7.317v7.798c0 .789.642 1.427 1.435 1.427a1.43 1.43 0 0 0 1.436-1.427V65.774c3.45-.669 6.063-3.69 6.063-7.316C41 54.346 37.636 51 33.501 51" id="Fill-4" fill="#1C1C1B"/></g></g></g></g></svg>