<?xml version="1.0" standalone="no"?>
<!DOCTYPE svg PUBLIC "-//W3C//DTD SVG 20010904//EN"
 "http://www.w3.org/TR/2001/REC-SVG-20010904/DTD/svg10.dtd">
<svg version="1.0" xmlns="http://www.w3.org/2000/svg"
 width="913.000000pt" height="913.000000pt" viewBox="0 0 913.000000 913.000000"
 preserveAspectRatio="xMidYMid meet">
<metadata>
Created by potrace 1.11, written by Peter Selinger 2001-2013
</metadata>
<g transform="translate(0.000000,913.000000) scale(0.100000,-0.100000)"
fill="#000000" stroke="none">
<path d="M4515 8982 c-64 -10 -174 -55 -270 -111 -60 -35 -135 -77 -165 -93
-30 -17 -57 -33 -60 -37 -5 -8 -36 -21 -46 -20 -4 0 -10 -4 -13 -9 -5 -8 -39
-28 -146 -86 -11 -6 -27 -16 -35 -22 -8 -7 -42 -26 -75 -44 -33 -18 -62 -35
-65 -39 -3 -3 -25 -16 -50 -29 -48 -24 -69 -36 -112 -65 -16 -10 -28 -15 -28
-12 0 4 -7 -1 -16 -9 -8 -9 -21 -16 -29 -16 -7 0 -15 -4 -17 -8 -1 -4 -25 -21
-53 -36 -106 -60 -142 -81 -200 -115 -33 -20 -71 -42 -85 -49 -14 -7 -43 -23
-65 -37 -22 -14 -49 -30 -60 -35 -11 -6 -38 -21 -60 -34 -22 -14 -56 -32 -75
-42 -19 -10 -41 -24 -48 -31 -7 -7 -18 -13 -23 -13 -6 0 -31 -14 -55 -31 -25
-17 -52 -32 -59 -33 -8 -1 -22 -9 -32 -17 -16 -14 -150 -92 -163 -95 -20 -4
-39 -17 -35 -24 3 -5 -8 -11 -24 -15 -15 -3 -38 -15 -50 -26 -11 -11 -21 -16
-21 -12 0 4 -4 4 -8 -2 -4 -5 -23 -18 -42 -28 -63 -31 -124 -67 -130 -76 -3
-5 -16 -12 -30 -16 -14 -4 -27 -10 -30 -14 -7 -8 -37 -26 -90 -53 -25 -13 -51
-29 -58 -35 -7 -7 -20 -13 -28 -13 -8 0 -14 -4 -14 -8 0 -5 -26 -21 -57 -37
-32 -15 -62 -34 -66 -41 -4 -8 -15 -14 -23 -14 -9 0 -28 -8 -42 -19 -23 -16
-67 -42 -147 -85 -11 -6 -23 -15 -27 -21 -5 -7 -8 -7 -8 0 0 6 -3 6 -8 -1 -6
-9 -129 -81 -157 -93 -5 -2 -23 -14 -40 -27 -16 -12 -32 -23 -35 -23 -12 0
-45 -16 -60 -28 -8 -7 -19 -13 -25 -14 -5 0 -17 -6 -25 -14 -8 -7 -42 -28 -75
-46 -33 -17 -67 -38 -75 -45 -8 -7 -18 -12 -22 -11 -4 1 -16 -6 -28 -15 -11
-10 -20 -16 -20 -13 0 5 -30 -18 -56 -43 -8 -7 -14 -11 -14 -8 0 3 -20 -15
-44 -39 -24 -25 -63 -85 -87 -133 l-44 -87 -5 -610 c-10 -1215 -10 -3409 -1
-3510 8 -75 17 -114 37 -155 33 -66 90 -145 132 -182 30 -26 158 -108 170
-108 3 0 13 -6 21 -14 9 -7 36 -24 61 -37 25 -13 55 -32 67 -42 12 -11 26 -16
32 -12 6 3 11 2 11 -3 0 -5 17 -17 38 -28 20 -10 39 -21 42 -24 3 -3 21 -14
40 -24 19 -11 37 -22 40 -25 4 -5 74 -43 165 -90 16 -9 32 -19 35 -22 3 -4 30
-20 60 -36 30 -17 78 -44 106 -62 28 -17 54 -31 57 -31 4 0 16 -8 27 -17 11
-10 24 -18 28 -18 4 0 25 -11 47 -23 22 -13 47 -27 55 -32 8 -5 61 -36 118
-70 56 -33 124 -73 150 -87 26 -15 63 -36 84 -47 20 -12 62 -36 95 -55 32 -19
78 -45 103 -59 25 -14 47 -28 50 -31 3 -4 16 -12 30 -18 47 -23 135 -75 153
-90 9 -9 17 -13 17 -9 0 3 18 -5 41 -19 47 -30 101 -62 145 -85 16 -9 43 -25
60 -37 16 -11 34 -21 39 -22 6 0 18 -8 28 -16 9 -8 20 -15 22 -15 3 0 35 -18
71 -40 36 -22 70 -40 74 -40 5 0 15 -6 22 -13 7 -6 29 -20 48 -29 19 -10 64
-36 100 -57 36 -22 79 -47 95 -55 17 -9 53 -29 80 -45 28 -17 70 -41 95 -56
99 -56 110 -63 126 -76 10 -8 18 -12 18 -10 1 3 26 -11 56 -30 30 -19 70 -41
88 -48 17 -7 32 -17 32 -22 0 -5 4 -9 9 -9 5 0 30 -12 56 -28 26 -15 64 -36
84 -48 20 -11 84 -48 142 -82 250 -145 426 -134 702 42 31 20 58 36 61 36 5 0
111 62 156 90 8 5 31 18 50 28 49 26 110 61 140 81 14 9 42 25 63 35 20 11 37
23 37 28 0 6 5 8 12 6 10 -4 48 16 94 49 15 12 50 32 97 55 23 12 49 27 57 33
8 7 35 23 60 36 25 13 48 28 51 32 3 5 12 9 20 11 8 1 32 13 54 27 75 46 176
104 226 130 19 10 41 25 48 33 7 9 17 14 21 11 4 -3 13 2 20 10 7 8 18 15 26
15 7 0 19 6 26 13 7 7 29 21 48 31 62 32 98 52 127 72 15 10 44 27 63 37 51
25 94 51 100 58 3 4 31 19 62 34 31 15 62 33 69 41 6 8 15 14 19 14 4 0 59 30
121 67 63 36 128 74 144 82 17 9 73 42 126 74 53 31 99 57 102 57 4 0 16 8 27
17 11 10 24 18 28 18 10 1 153 85 174 103 10 8 18 12 18 9 0 -3 36 16 80 43
44 28 84 50 90 50 5 0 10 5 10 11 0 6 6 9 14 6 8 -3 16 -2 18 3 3 10 226 140
239 140 5 0 9 5 9 11 0 5 4 8 8 5 5 -3 18 4 30 14 12 11 24 20 28 20 3 0 34
17 68 37 33 21 63 38 66 38 12 0 130 79 130 87 0 4 5 8 11 8 14 0 88 81 89 98
0 6 4 12 9 12 8 0 28 38 61 115 5 11 13 37 19 57 11 44 15 568 4 584 -12 15
-83 67 -83 60 0 -6 -55 26 -126 72 -10 7 -37 21 -59 32 -22 11 -60 33 -85 49
-25 16 -51 30 -57 30 -7 1 -13 5 -13 10 0 5 -8 11 -17 14 -10 4 -45 22 -78 42
-33 19 -76 43 -95 53 -19 9 -49 26 -65 38 -29 20 -70 39 -70 32 0 -2 -10 6
-23 18 -12 11 -41 31 -64 43 -24 12 -61 33 -83 46 -22 13 -56 32 -75 42 -19
10 -37 21 -40 24 -3 3 -32 21 -65 39 -33 18 -77 44 -97 57 -21 12 -40 23 -42
23 -7 0 -188 107 -202 119 -7 5 -15 7 -18 4 -3 -4 -6 -2 -6 4 0 6 -8 13 -17
16 -10 3 -40 20 -68 36 -27 17 -57 34 -65 38 -8 4 -37 20 -65 36 -27 17 -63
37 -80 47 -16 9 -75 43 -130 75 -55 33 -120 69 -145 82 -24 13 -46 27 -50 31
-3 4 -21 15 -40 25 -19 10 -44 23 -55 30 -11 7 -52 30 -90 51 -39 22 -72 42
-75 46 -3 4 -25 17 -50 29 -25 11 -67 35 -95 52 -27 18 -68 42 -90 54 -22 12
-58 32 -80 45 -22 13 -59 34 -82 46 -23 12 -55 31 -71 43 -17 11 -33 21 -36
21 -3 0 -47 25 -97 55 -51 31 -102 57 -113 60 -22 5 -34 -1 -178 -84 -51 -30
-109 -63 -128 -74 -19 -10 -64 -36 -100 -57 -36 -21 -106 -61 -156 -89 -51
-28 -97 -57 -103 -65 -14 -17 3 -32 89 -81 36 -21 81 -47 100 -58 19 -11 55
-31 80 -45 25 -14 56 -32 70 -41 14 -10 36 -22 50 -29 14 -7 43 -23 65 -37 22
-14 65 -39 95 -55 30 -17 73 -42 95 -55 22 -13 47 -27 55 -31 8 -4 31 -17 50
-29 19 -12 55 -33 80 -47 105 -59 126 -71 153 -90 15 -11 34 -21 41 -22 8 -1
20 -7 27 -13 8 -6 37 -23 64 -38 28 -16 52 -31 55 -34 5 -6 60 -36 133 -73 20
-10 37 -23 37 -29 0 -6 7 -9 15 -5 8 3 15 2 15 -3 0 -4 18 -16 40 -26 22 -10
40 -21 40 -24 0 -3 15 -12 33 -20 17 -8 40 -21 50 -29 9 -8 17 -11 17 -6 0 5
4 5 8 -1 4 -5 16 -15 27 -22 38 -23 130 -76 160 -91 17 -8 32 -19 35 -22 3 -4
34 -23 69 -41 108 -57 116 -62 121 -69 3 -3 13 -10 24 -13 15 -6 16 -10 6 -22
-6 -8 -21 -17 -33 -21 -17 -6 -61 -31 -142 -81 -11 -7 -40 -24 -65 -38 -44
-25 -78 -44 -205 -117 -36 -21 -70 -38 -75 -38 -6 0 -10 -3 -10 -8 0 -4 -9
-12 -19 -17 -80 -41 -111 -60 -111 -67 0 -4 -7 -8 -15 -8 -8 0 -15 -5 -15 -11
0 -5 -5 -7 -11 -4 -5 4 -18 0 -27 -8 -17 -15 -56 -38 -142 -85 -25 -13 -49
-28 -55 -32 -5 -4 -30 -19 -55 -32 -71 -39 -124 -69 -136 -79 -6 -5 -31 -20
-55 -33 -24 -13 -60 -33 -79 -45 -19 -11 -51 -29 -70 -39 -19 -10 -54 -30 -77
-45 -24 -15 -47 -27 -53 -27 -5 0 -10 -4 -10 -9 0 -5 -10 -13 -22 -17 -13 -4
-46 -21 -74 -38 -27 -17 -59 -36 -70 -43 -10 -7 -41 -24 -69 -39 -27 -14 -62
-35 -77 -46 -16 -11 -28 -16 -28 -12 0 3 -15 -5 -34 -20 -19 -14 -37 -26 -39
-26 -3 0 -60 -32 -128 -72 -68 -39 -134 -76 -146 -82 -13 -6 -23 -14 -23 -18
0 -10 -47 -10 -52 0 -3 7 -39 29 -98 59 -19 10 -42 26 -51 35 -9 10 -19 15
-22 12 -3 -3 -27 9 -54 27 -26 19 -50 34 -53 34 -3 0 -21 10 -41 23 -20 12
-40 22 -44 22 -5 0 -22 10 -39 23 -17 13 -49 31 -71 42 -22 10 -42 21 -45 25
-3 4 -23 17 -45 29 -22 12 -62 35 -90 51 -80 46 -97 55 -147 82 -26 14 -60 35
-76 47 -17 11 -32 21 -35 21 -10 0 -252 144 -255 152 -2 4 -12 8 -22 8 -10 0
-22 5 -25 10 -4 6 -30 22 -58 37 -29 14 -54 28 -57 32 -5 6 -26 18 -130 72
-25 13 -47 26 -50 29 -15 15 -90 59 -90 53 0 -5 -4 -3 -8 3 -4 6 -30 23 -59
37 -28 15 -54 31 -58 37 -4 6 -10 8 -15 5 -4 -3 -13 2 -20 10 -7 8 -19 15 -26
15 -8 0 -14 5 -14 10 0 6 -5 10 -10 10 -6 0 -35 15 -65 34 -29 19 -56 32 -59
29 -3 -4 -6 -2 -6 4 0 5 -18 18 -40 28 -22 10 -40 22 -40 27 0 4 -8 8 -19 8
-10 0 -24 7 -31 15 -7 8 -17 15 -23 15 -6 0 -32 14 -59 31 l-48 31 0 1277 0
1278 25 23 c14 13 28 21 31 17 4 -3 21 5 39 18 17 14 35 25 38 25 6 0 58 31
132 77 11 7 39 22 63 34 23 12 45 25 48 30 2 5 24 18 47 29 23 11 60 32 82 45
22 14 56 33 75 42 19 10 49 27 65 39 17 11 51 31 78 45 26 13 47 27 47 31 0 5
7 8 15 8 8 0 30 10 49 23 89 56 124 77 134 77 6 0 17 6 24 13 23 22 67 47 83
47 8 0 15 4 15 9 0 5 14 14 30 21 17 7 49 26 70 41 22 16 40 27 40 24 0 -3 24
10 53 29 28 18 69 41 90 51 20 9 37 21 37 26 0 5 4 9 10 9 8 0 95 47 155 83
11 7 43 27 72 44 29 18 56 33 61 33 4 0 14 5 23 12 9 7 31 21 50 32 19 10 57
31 84 46 28 15 73 41 101 59 28 17 56 31 62 31 6 0 12 4 14 8 2 4 30 23 63 41
33 19 74 42 90 51 35 20 40 18 108 -26 28 -19 55 -34 59 -34 4 0 36 -18 70
-40 35 -22 69 -40 76 -40 6 0 12 -4 12 -8 0 -5 30 -24 68 -43 37 -19 69 -37
72 -40 3 -3 21 -14 40 -25 19 -10 38 -23 42 -29 4 -5 8 -7 8 -3 0 4 25 -8 55
-27 30 -19 59 -35 65 -35 5 0 10 -4 10 -9 0 -5 10 -13 23 -17 12 -4 46 -22 75
-40 28 -19 54 -34 57 -34 3 0 15 -6 28 -13 76 -48 175 -104 190 -110 9 -3 17
-10 17 -15 0 -5 6 -9 13 -9 16 -1 240 -131 249 -146 4 -7 8 -9 8 -5 0 7 90
-39 100 -51 3 -3 21 -14 40 -25 75 -39 145 -79 150 -85 3 -3 21 -14 40 -24 19
-9 54 -28 78 -42 23 -14 61 -36 85 -50 23 -14 61 -35 85 -47 23 -12 42 -26 42
-30 0 -4 7 -8 15 -8 8 0 15 -4 15 -8 0 -5 6 -9 13 -9 6 -1 44 -15 83 -31 67
-28 79 -30 180 -28 62 2 122 9 139 16 17 7 32 14 35 15 49 17 109 45 115 54 2
5 22 18 42 29 73 38 118 64 134 78 8 8 19 14 23 14 17 0 166 94 163 104 -2 5
-17 18 -33 27 -16 9 -64 37 -106 63 -43 25 -78 43 -78 40 0 -3 -15 6 -32 19
-18 13 -52 35 -75 47 -24 13 -43 27 -43 32 0 4 -7 8 -15 8 -17 0 -65 28 -77
45 -4 5 -8 7 -8 3 0 -4 -24 7 -52 25 -29 18 -64 38 -78 45 -14 7 -52 29 -85
48 -33 20 -80 48 -105 62 -25 14 -61 34 -80 45 -19 11 -55 32 -80 46 -25 13
-47 27 -50 30 -3 3 -23 16 -45 27 -99 53 -125 68 -125 76 0 4 -7 8 -16 8 -10
0 -40 15 -68 34 -28 18 -82 50 -121 71 -38 20 -72 41 -73 46 -2 5 -7 7 -12 4
-4 -2 -15 4 -25 15 -10 11 -22 20 -27 20 -5 0 -37 16 -71 36 -34 20 -82 48
-107 62 -25 14 -47 28 -50 32 -3 3 -23 14 -45 25 -22 10 -67 34 -100 54 -33
20 -74 43 -90 51 -17 8 -33 20 -38 27 -4 6 -21 14 -37 18 -17 4 -30 10 -30 14
0 3 -17 15 -37 26 -21 11 -40 22 -43 25 -3 3 -23 14 -45 25 -22 11 -55 30 -72
43 -18 14 -33 22 -33 18 0 -3 -25 10 -55 29 -30 19 -57 35 -61 35 -4 0 -15 6
-23 14 -9 8 -42 28 -73 45 -83 44 -101 55 -118 67 -8 7 -41 26 -72 43 -91 49
-103 55 -110 66 -4 6 -8 6 -8 2 0 -5 -14 1 -30 13 -27 19 -33 20 -60 8 -17 -7
-30 -16 -30 -19 0 -4 -12 -10 -27 -14 -15 -3 -30 -10 -33 -14 -6 -8 -82 -56
-90 -56 -3 0 -18 -9 -35 -21 -16 -11 -43 -28 -60 -36 -63 -32 -130 -70 -135
-77 -3 -3 -21 -15 -40 -25 -32 -17 -100 -56 -190 -109 -19 -11 -53 -30 -76
-43 -22 -12 -59 -33 -81 -47 -23 -14 -44 -23 -47 -20 -3 4 -6 2 -6 -3 0 -5
-17 -18 -37 -29 -21 -11 -52 -30 -70 -43 -18 -13 -37 -21 -43 -17 -5 3 -10 2
-10 -2 0 -9 -59 -47 -72 -48 -4 0 -17 -8 -29 -19 -12 -10 -38 -26 -58 -35 -20
-9 -50 -26 -68 -38 -17 -13 -35 -23 -40 -23 -5 0 -24 -11 -43 -25 -18 -13 -36
-22 -40 -20 -4 3 -13 -2 -20 -10 -7 -8 -19 -15 -26 -15 -8 0 -14 -4 -14 -9 0
-5 -18 -17 -40 -27 -22 -10 -40 -21 -40 -26 0 -4 -7 -8 -15 -8 -8 0 -15 -5
-15 -11 0 -5 -4 -8 -8 -5 -5 3 -24 -6 -44 -19 -19 -13 -60 -37 -91 -54 -85
-46 -100 -55 -115 -68 -7 -7 -18 -13 -23 -13 -5 0 -49 -24 -97 -54 -48 -29
-112 -66 -142 -82 -30 -16 -73 -41 -94 -56 -21 -16 -44 -28 -51 -28 -6 0 -20
-8 -31 -18 -10 -10 -22 -19 -27 -20 -14 -3 -72 -34 -87 -47 -8 -7 -26 -16 -39
-20 -14 -4 -36 -18 -50 -31 -14 -13 -33 -24 -42 -24 -9 0 -22 -7 -29 -15 -7
-8 -16 -15 -20 -15 -4 0 -41 -20 -81 -44 -141 -83 -214 -125 -241 -137 -14 -6
-29 -21 -32 -33 -3 -11 -6 -766 -6 -1676 0 -1587 1 -1656 18 -1670 10 -8 40
-26 68 -40 27 -14 54 -28 59 -33 34 -26 89 -58 110 -63 14 -3 25 -9 25 -13 0
-4 19 -17 43 -30 23 -12 71 -39 107 -61 36 -22 84 -49 107 -60 23 -12 47 -28
54 -36 6 -8 17 -14 25 -14 7 0 30 -12 51 -26 21 -14 48 -30 59 -34 12 -5 54
-29 93 -55 40 -25 76 -43 81 -40 4 3 10 1 12 -4 4 -11 135 -91 148 -91 6 0 10
-4 10 -8 0 -4 12 -13 28 -20 15 -6 50 -25 77 -42 28 -16 57 -33 65 -37 14 -8
129 -74 160 -93 8 -5 51 -30 95 -55 44 -25 87 -50 95 -56 8 -5 22 -12 30 -16
8 -3 27 -15 43 -25 15 -11 27 -16 27 -12 0 4 8 -2 18 -12 9 -10 24 -20 32 -22
8 -2 47 -23 86 -48 40 -24 76 -44 80 -44 5 -1 31 -16 59 -35 27 -18 53 -31 57
-29 4 3 8 1 8 -4 0 -5 26 -23 58 -39 112 -59 127 -68 137 -80 5 -6 31 -21 58
-33 26 -12 47 -27 47 -33 0 -6 3 -8 6 -4 3 3 24 -5 46 -19 22 -14 54 -33 72
-44 18 -10 44 -24 57 -32 13 -7 26 -15 29 -19 3 -3 21 -13 40 -22 48 -24 74
-40 82 -52 4 -5 8 -6 8 -2 0 4 17 -4 37 -18 21 -14 42 -25 47 -25 5 0 17 -6
25 -14 9 -8 32 -23 52 -34 20 -11 46 -26 57 -33 18 -11 24 -10 41 5 12 11 21
15 21 10 0 -5 4 -4 8 1 4 6 23 19 42 29 19 11 37 22 40 25 3 3 21 14 40 23 19
10 58 31 85 48 28 17 61 36 75 43 14 6 49 27 78 45 29 18 78 47 110 64 31 17
64 37 73 44 8 8 21 14 27 14 7 0 12 5 12 11 0 5 4 8 10 4 5 -3 18 2 30 12 11
10 24 18 28 18 4 0 21 10 37 21 17 12 66 41 110 64 44 23 87 48 96 56 8 8 19
14 23 14 4 0 32 16 63 36 30 19 57 33 60 30 3 -2 13 3 23 12 29 26 45 37 59
40 8 2 32 16 55 31 22 16 51 31 64 35 12 4 22 11 22 16 0 8 38 23 53 21 4 -1
7 3 7 8 0 4 30 24 66 42 36 19 74 42 85 52 10 9 20 16 21 15 3 -2 46 22 161
88 32 19 63 34 68 34 5 0 9 4 9 9 0 5 10 13 23 17 12 4 46 22 75 40 28 19 52
31 52 27 0 -4 10 3 23 14 12 11 36 27 52 35 55 28 99 53 113 65 7 7 20 13 28
13 8 0 14 4 14 9 0 5 10 11 23 15 12 3 33 16 47 28 13 13 26 22 27 21 5 -5 39
11 68 31 36 25 78 49 124 71 19 9 40 23 48 31 8 8 21 14 29 14 8 0 14 3 14 8
0 4 10 12 23 18 37 18 135 72 175 97 20 13 62 38 92 55 l56 30 59 -33 c33 -19
79 -44 103 -56 23 -12 51 -31 61 -40 10 -10 21 -15 24 -13 3 3 24 -6 47 -21
45 -29 44 -42 -9 -68 -61 -31 -147 -81 -162 -93 -8 -8 -23 -14 -32 -14 -8 0
-22 -7 -31 -15 -8 -8 -33 -25 -55 -38 -107 -59 -247 -140 -251 -146 -3 -3 -11
-7 -19 -9 -7 -2 -33 -16 -57 -32 -23 -17 -47 -30 -53 -30 -6 0 -11 -5 -11 -11
0 -5 -4 -8 -9 -5 -4 3 -16 -3 -26 -14 -10 -11 -21 -18 -25 -15 -3 2 -26 -9
-51 -26 -24 -16 -47 -29 -51 -29 -6 0 -27 -12 -113 -68 -11 -7 -32 -18 -47
-25 -16 -6 -28 -15 -28 -19 0 -4 -6 -8 -13 -8 -7 0 -28 -11 -48 -24 -32 -22
-78 -48 -179 -102 -19 -11 -37 -21 -40 -24 -13 -13 -77 -47 -100 -53 -3 0 -14
-9 -25 -19 -11 -10 -30 -21 -42 -24 -13 -4 -23 -10 -23 -14 0 -5 -10 -12 -22
-16 -12 -3 -45 -22 -75 -41 -29 -18 -61 -37 -70 -40 -10 -4 -53 -29 -95 -55
-43 -26 -85 -48 -93 -48 -9 0 -18 -7 -21 -15 -4 -8 -10 -15 -15 -15 -7 0 -118
-63 -209 -118 -14 -9 -27 -15 -30 -15 -3 0 -17 -8 -32 -18 -14 -10 -31 -19
-37 -19 -6 0 -11 -3 -11 -7 0 -5 -18 -17 -40 -27 -22 -11 -40 -23 -40 -27 0
-4 -12 -10 -27 -14 -16 -3 -35 -13 -44 -21 -16 -15 -78 -51 -144 -84 -22 -11
-60 -34 -85 -50 -25 -17 -63 -39 -86 -50 -22 -11 -54 -30 -70 -42 -15 -13 -30
-22 -32 -20 -1 2 -20 -7 -40 -19 -20 -13 -39 -23 -42 -23 -5 -1 -33 -18 -125
-74 -11 -6 -38 -21 -60 -33 -22 -12 -42 -24 -45 -28 -8 -10 -87 -51 -97 -51
-6 0 -39 19 -74 41 -35 23 -66 42 -69 42 -3 0 -14 5 -25 12 -126 76 -234 137
-252 141 -13 4 -23 10 -23 15 0 4 -17 16 -37 26 -21 9 -56 29 -78 44 -22 15
-43 25 -47 23 -5 -3 -8 -1 -8 4 0 5 -8 12 -17 16 -10 3 -27 11 -38 18 -11 7
-39 25 -63 41 -24 15 -47 27 -51 27 -5 0 -19 8 -32 19 -13 10 -26 18 -29 18
-6 -1 -144 78 -182 104 -15 11 -32 19 -38 19 -6 0 -20 9 -32 20 -12 10 -25 17
-30 14 -4 -3 -8 -1 -8 4 0 5 -8 12 -17 16 -18 5 -29 12 -85 49 -16 10 -28 15
-28 11 0 -4 -10 1 -22 12 -13 10 -44 30 -70 44 -27 13 -48 28 -48 32 0 5 -5 8
-10 8 -6 0 -43 19 -83 42 -40 23 -96 55 -126 72 -29 17 -74 43 -100 59 -25 15
-63 35 -83 44 -21 9 -38 20 -38 25 0 4 -7 8 -15 8 -8 0 -15 3 -15 8 0 4 -18
16 -40 26 -22 11 -40 23 -40 28 0 4 -3 7 -7 6 -9 -1 -49 16 -78 34 -78 50
-124 76 -127 73 -2 -2 -17 7 -32 20 -16 14 -33 25 -38 25 -5 0 -32 15 -61 33
-29 18 -63 38 -77 45 -14 7 -43 23 -65 36 -22 14 -64 37 -92 52 -29 15 -53 30
-53 34 0 7 -37 21 -49 19 -2 0 -7 3 -10 8 -8 12 -109 73 -121 73 -6 0 -10 5
-10 10 0 6 -6 10 -12 10 -7 0 -33 14 -58 30 -25 16 -51 30 -59 30 -7 0 -22 10
-32 22 -11 11 -19 17 -19 12 0 -5 -4 -4 -8 1 -7 10 -54 37 -109 64 -18 8 -33
19 -33 23 0 4 -5 8 -11 8 -6 0 -38 16 -70 36 l-59 35 0 1873 0 1872 37 22 c21
12 58 31 81 43 24 11 53 28 63 37 11 10 23 17 27 17 4 0 21 9 37 20 17 12 44
27 60 35 17 8 32 18 35 21 6 7 52 33 60 34 11 1 70 40 70 45 0 4 6 7 13 7 8 0
33 13 58 30 24 17 48 31 52 31 4 0 45 23 90 50 147 87 182 106 188 105 4 -1
15 7 24 17 10 11 23 20 29 20 6 0 39 18 74 40 34 22 67 40 72 40 5 0 15 6 22
13 7 7 54 35 103 62 50 26 92 51 95 54 3 3 21 15 40 25 19 11 60 33 90 49 30
17 57 33 60 36 3 3 21 15 40 25 97 53 120 66 183 104 37 23 67 38 67 34 0 -4
4 -2 8 3 7 10 34 27 90 56 18 10 38 22 45 27 11 9 52 33 143 81 16 9 43 26 60
36 16 11 46 29 67 39 20 11 37 23 37 28 0 5 4 7 9 4 4 -3 30 9 57 26 73 47
105 66 149 89 42 21 63 33 107 62 16 10 28 15 28 11 0 -4 6 0 13 10 7 9 19 18
28 19 8 2 28 12 44 23 17 11 44 26 60 34 17 8 32 18 35 21 3 4 21 15 40 25 19
11 47 28 62 38 15 9 34 19 42 20 8 1 23 9 33 18 10 8 30 22 44 29 15 8 46 25
70 39 24 13 47 23 52 22 4 -1 7 1 7 6 0 4 17 16 38 27 20 11 39 22 42 25 3 3
20 13 38 23 33 19 33 19 68 -8 19 -15 38 -25 41 -22 3 3 15 -3 27 -15 11 -11
37 -27 56 -35 19 -9 48 -24 63 -35 38 -27 106 -65 140 -79 15 -6 27 -15 27
-20 0 -5 5 -9 11 -9 7 0 35 -14 63 -32 65 -40 110 -65 166 -95 60 -32 122 -69
137 -82 6 -6 23 -13 37 -17 14 -3 26 -9 26 -13 0 -4 19 -17 43 -30 53 -28 81
-44 87 -53 3 -3 24 -14 48 -23 23 -10 42 -21 42 -26 0 -5 6 -9 13 -9 8 0 33
-13 55 -30 23 -16 49 -30 57 -30 8 0 15 -5 15 -11 0 -5 4 -8 9 -5 5 4 11 2 13
-2 3 -8 59 -42 136 -83 18 -9 38 -22 45 -27 7 -5 38 -24 69 -41 86 -46 103
-55 108 -62 9 -11 84 -49 97 -49 7 0 13 -4 13 -9 0 -4 28 -23 63 -41 34 -19
64 -37 65 -42 2 -4 8 -8 13 -8 5 0 27 -11 49 -25 22 -14 40 -23 40 -20 0 3 10
-3 22 -15 12 -11 25 -20 29 -20 8 0 213 -115 249 -140 14 -9 52 -32 85 -50 33
-18 74 -42 90 -52 17 -10 41 -23 55 -30 14 -7 27 -15 30 -18 3 -3 22 -14 43
-24 20 -11 37 -23 37 -28 0 -4 3 -7 8 -6 4 1 27 -9 52 -24 25 -15 57 -32 73
-39 15 -7 27 -16 27 -21 0 -4 7 -8 15 -8 8 0 15 -4 15 -10 0 -5 3 -10 8 -9 15
2 52 -14 52 -22 0 -5 7 -9 15 -9 8 0 15 -5 15 -12 0 -6 3 -8 6 -5 4 4 19 -2
34 -13 15 -11 38 -24 51 -30 29 -12 58 -30 77 -47 7 -7 18 -13 23 -13 5 0 32
-15 61 -33 29 -19 60 -37 68 -40 8 -4 34 -18 58 -31 l42 -24 43 24 c23 13 50
27 60 30 9 4 17 10 17 15 0 5 6 9 13 9 7 0 29 11 48 25 20 13 39 21 43 18 3
-4 6 -1 6 5 0 7 5 12 12 12 6 0 25 10 42 23 17 12 48 31 69 41 20 11 37 24 37
29 0 6 3 8 6 4 6 -6 78 31 127 65 15 11 27 16 27 11 0 -4 4 -3 8 2 4 6 28 23
55 38 26 15 47 34 47 41 0 7 -34 31 -76 52 -41 22 -84 47 -95 57 -10 10 -19
15 -19 12 0 -3 -25 10 -55 30 -30 19 -55 32 -55 29 0 -4 -15 5 -33 19 -18 14
-49 33 -68 42 -45 21 -87 45 -124 70 -16 12 -43 27 -60 35 -16 8 -32 17 -35
21 -3 3 -24 15 -48 27 -24 12 -53 31 -64 42 -12 11 -25 17 -29 14 -5 -3 -24 6
-42 20 -19 15 -37 26 -41 26 -4 0 -22 11 -40 25 -18 14 -39 25 -47 25 -8 0
-32 14 -53 30 -22 17 -45 30 -51 30 -6 0 -21 9 -33 20 -12 12 -22 18 -22 15 0
-3 -18 6 -40 20 -34 22 -76 45 -175 99 -11 6 -34 20 -50 32 -29 20 -63 36 -68
31 -1 -1 -12 7 -24 18 -12 11 -44 31 -70 45 -26 13 -70 38 -98 55 -27 17 -57
34 -65 38 -8 4 -28 16 -45 26 -16 11 -57 34 -90 51 -33 18 -71 41 -84 51 -13
11 -28 19 -33 19 -6 0 -22 8 -36 19 -15 10 -54 33 -87 51 -33 18 -63 38 -67
44 -4 6 -8 7 -8 3 0 -4 -17 4 -37 18 -21 14 -43 25 -50 25 -7 0 -13 3 -13 8 0
4 -12 13 -27 19 -16 7 -52 28 -81 48 -30 19 -58 35 -63 35 -8 0 -87 47 -99 60
-3 3 -27 16 -55 30 -27 14 -78 42 -112 62 -35 21 -65 38 -68 38 -2 0 -14 8
-25 18 -11 9 -24 17 -28 17 -7 1 -82 42 -132 74 -14 8 -42 24 -62 34 -21 11
-38 23 -38 27 0 5 -13 11 -30 15 -16 4 -32 10 -35 15 -6 9 -124 78 -165 96
-14 6 -33 18 -41 25 -8 8 -36 25 -62 39 -26 13 -47 28 -47 32 0 5 -7 8 -15 8
-8 0 -36 14 -62 30 -26 17 -53 30 -59 30 -7 0 -17 6 -21 13 -4 6 -24 20 -43
29 -46 24 -73 41 -82 53 -4 6 -8 7 -8 3 0 -4 -33 5 -72 19 -66 23 -158 34
-213 25z"/>
<path d="M6380 5318 c0 -4 -8 -5 -18 -3 -20 3 -132 -33 -177 -59 -17 -9 -52
-30 -80 -46 -27 -17 -61 -35 -75 -42 -14 -7 -27 -15 -30 -18 -3 -3 -25 -16
-50 -29 -25 -13 -52 -30 -60 -36 -8 -7 -31 -20 -50 -27 -59 -25 -78 -68 -29
-68 10 0 19 -5 19 -11 0 -5 19 -19 43 -30 23 -11 67 -35 97 -53 57 -34 418
-244 480 -279 103 -57 127 -72 143 -85 9 -8 17 -12 17 -8 0 5 76 -40 90 -54 3
-3 21 -13 40 -23 60 -29 145 -79 150 -87 3 -4 16 -11 30 -15 14 -4 27 -11 30
-14 3 -4 37 -24 75 -45 39 -21 90 -51 114 -68 24 -16 46 -27 48 -24 3 3 14 -4
26 -14 11 -11 36 -28 56 -38 20 -9 70 -38 111 -62 41 -24 77 -45 80 -45 3 0
24 -13 47 -28 24 -15 45 -27 48 -27 3 0 24 -12 48 -27 23 -15 71 -42 107 -61
36 -19 72 -40 80 -47 8 -7 31 -20 50 -30 19 -10 45 -27 58 -39 13 -11 25 -20
28 -18 9 5 23 1 36 -11 7 -7 33 -23 58 -36 25 -13 47 -26 50 -30 5 -5 45 -28
125 -69 17 -8 32 -18 35 -21 3 -3 25 -17 50 -30 25 -13 52 -30 61 -37 8 -8 19
-14 24 -14 4 0 30 -14 57 -31 79 -51 78 -55 78 229 0 256 -6 317 -36 387 -10
22 -18 42 -18 45 -2 15 -54 90 -82 118 -18 17 -30 32 -26 32 4 1 -5 8 -20 16
-16 8 -28 18 -28 23 0 5 -25 21 -55 36 -30 14 -61 32 -68 38 -7 7 -28 21 -47
31 -50 27 -292 166 -376 215 -39 22 -76 41 -83 41 -6 0 -11 4 -11 8 0 5 -24
21 -52 36 -88 46 -117 63 -158 90 -22 14 -41 26 -43 26 -2 0 -42 22 -88 50
-46 27 -90 50 -96 50 -7 0 -13 4 -13 8 0 4 -31 25 -70 45 -38 21 -72 42 -75
48 -4 5 -15 9 -26 9 -10 0 -19 3 -19 8 0 4 -21 19 -47 32 -26 14 -90 51 -142
82 -53 32 -101 58 -108 58 -6 0 -13 4 -15 10 -3 11 -138 63 -138 53 0 -3 -6
-1 -13 5 -7 6 -22 11 -32 11 -11 0 -46 2 -77 3 -32 2 -58 0 -58 -4z"/>
</g>
</svg>
