<?xml version="1.0" encoding="UTF-8"?>
<svg xmlns="http://www.w3.org/2000/svg" width="96" height="96" viewBox="0 0 96 96">
  <title>1</title>
  <g id="Page-1" stroke="none" stroke-width="1" fill="none" fill-rule="evenodd">
    <g id="savings/how-to-apply" transform="translate(-265 -376)">
      <g id="1" transform="translate(265 375)">
        <path d="M48.12 29.686l-10.7 8.004 1.927 2.4.274-.213c4.89-3.822 7.748-6.068 8.044-6.327l.154-.136a101.427 101.427 0 0 0-.247 6.939v28.02h3.252V29.685H48.12z" id="Fill-1" fill="#000"></path>
        <path d="M47.618 85.872c-20.317 0-36.844-16.527-36.844-36.843 0-20.315 16.527-36.842 36.844-36.842 20.315 0 36.843 16.527 36.843 36.842 0 20.316-16.528 36.843-36.843 36.843m0-76.653c-21.951 0-39.81 17.859-39.81 39.81 0 21.95 17.859 39.81 39.81 39.81 21.95 0 39.81-17.86 39.81-39.81 0-21.951-17.86-39.81-39.81-39.81m0 84.604c-24.7 0-44.794-20.095-44.794-44.794 0-24.7 20.094-44.793 44.794-44.793 24.699 0 44.794 20.093 44.794 44.793S72.317 93.823 47.618 93.823m.234-92.405c-.079 0-.155-.006-.234-.006C21.361 1.412.001 22.773.001 49.029c0 .08.004.157.004.235.128 26.149 21.435 47.383 47.613 47.383.08 0 .155-.006.234-.006 26.07-.127 47.25-21.308 47.378-47.377 0-.078.006-.155.006-.235C95.236 22.851 74 1.546 47.852 1.418" id="Fill-3" fill="#000"></path>
        <path d="M47.618 88.84c-21.951 0-39.81-17.86-39.81-39.81 0-21.951 17.859-39.81 39.81-39.81 21.95 0 39.81 17.859 39.81 39.81 0 21.95-17.86 39.81-39.81 39.81m0-84.605c-24.7 0-44.794 20.095-44.794 44.795 0 24.699 20.094 44.793 44.794 44.793 24.699 0 44.794-20.094 44.794-44.793 0-24.7-20.095-44.795-44.794-44.795" id="Fill-8" fill="#D7D925"></path>
      </g>
    </g>
  </g>
</svg>
