<?xml version="1.0" encoding="UTF-8"?>
<svg xmlns="http://www.w3.org/2000/svg" width="96" height="96" viewBox="0 0 96 96">
  <title>2</title>
  <g id="Page-1" stroke="none" stroke-width="1" fill="none" fill-rule="evenodd">
    <g id="savings/how-to-apply" transform="translate(-523 -376)">
      <g id="2" transform="translate(523 375)">
        <path d="M39.922 65.446l9.26-9.506c3.385-3.457 5.752-6.406 7.033-8.768 1.296-2.387 1.953-4.895 1.953-7.457 0-3.186-.995-5.73-2.96-7.557-1.954-1.821-4.662-2.745-8.045-2.745-3.929 0-7.556 1.374-10.776 4.083l-.26.219 1.834 2.343.28-.223c2.81-2.241 5.795-3.378 8.87-3.378 2.266 0 4.135.683 5.55 2.032 1.409 1.344 2.123 3.12 2.123 5.28 0 1.506-.261 2.967-.78 4.344-.523 1.382-1.356 2.857-2.476 4.383-1.13 1.543-3.132 3.802-5.945 6.719l-10.205 10.65v2.781h24.477v-3.2H39.922z" id="Fill-1" fill="#000"></path>
        <path d="M47.618 85.872c-20.317 0-36.844-16.527-36.844-36.843 0-20.315 16.527-36.842 36.844-36.842 20.315 0 36.843 16.527 36.843 36.842 0 20.316-16.528 36.843-36.843 36.843m0-76.653c-21.951 0-39.81 17.859-39.81 39.81 0 21.95 17.859 39.81 39.81 39.81 21.95 0 39.81-17.86 39.81-39.81 0-21.951-17.86-39.81-39.81-39.81m0 84.604c-24.7 0-44.794-20.095-44.794-44.794 0-24.7 20.094-44.793 44.794-44.793 24.699 0 44.794 20.093 44.794 44.793S72.317 93.823 47.618 93.823m.234-92.405c-.079 0-.155-.006-.234-.006C21.361 1.412.001 22.773.001 49.029c0 .08.004.157.004.235.128 26.149 21.435 47.383 47.613 47.383.08 0 .155-.006.234-.006 26.07-.127 47.25-21.308 47.378-47.377 0-.078.006-.155.006-.235C95.236 22.851 74 1.546 47.852 1.418" id="Fill-3" fill="#000"></path>
        <path d="M47.618 88.84c-21.951 0-39.81-17.86-39.81-39.81 0-21.951 17.859-39.81 39.81-39.81 21.95 0 39.81 17.859 39.81 39.81 0 21.95-17.86 39.81-39.81 39.81m0-84.605c-24.7 0-44.794 20.095-44.794 44.795 0 24.699 20.094 44.793 44.794 44.793 24.699 0 44.794-20.094 44.794-44.793 0-24.7-20.095-44.795-44.794-44.795" id="Fill-8" fill="#D7D925"></path>
      </g>
    </g>
  </g>
</svg>
