<?xml version="1.0" encoding="UTF-8"?>
<svg xmlns="http://www.w3.org/2000/svg" width="94" height="95" viewBox="0 0 94 95">
  <title>4</title>
  <g id="Page-1" stroke="none" stroke-width="1" fill="none" fill-rule="evenodd">
    <g id="savings/how-to-apply" transform="translate(-1039 -377)">
      <g id="4" transform="translate(1039 377)">
        <path d="M46.928 83.628c-20.022 0-36.31-16.288-36.31-36.31 0-20.02 16.288-36.308 36.31-36.308 20.02 0 36.309 16.288 36.309 36.309 0 20.02-16.288 36.309-36.309 36.309m0-75.543c-21.633 0-39.233 17.6-39.233 39.234 0 21.632 17.6 39.233 39.233 39.233 21.632 0 39.232-17.601 39.232-39.233 0-21.634-17.6-39.234-39.232-39.234m0 83.379c-24.342 0-44.145-19.804-44.145-44.145 0-24.342 19.803-44.145 44.145-44.145 24.34 0 44.145 19.803 44.145 44.145 0 24.34-19.804 44.145-44.145 44.145M47.159.397c-.078 0-.153-.005-.231-.005C21.051.392.001 21.443.001 47.319c0 .078.004.154.004.23.126 25.77 21.124 46.697 46.923 46.697.078 0 .153-.005.231-.005 25.692-.126 46.566-21 46.69-46.691 0-.077.006-.153.006-.231 0-25.8-20.928-46.795-46.696-46.922" id="Fill-1" fill="#000"></path>
        <path d="M33.918 54.038l12.83-18.326c1.221-1.79 2.108-3.122 2.653-3.986-.195 3.296-.292 7.31-.292 11.957v10.355h-15.19zm18.292 0V28.153h-3.626L29.918 54.67l-.064.09v2.174H49.11v9.548h3.1v-9.548h6.452v-2.897H52.21z" id="Fill-4" fill="#000"></path>
        <path d="M46.928 86.552c-21.633 0-39.233-17.6-39.233-39.232 0-21.634 17.6-39.234 39.233-39.234 21.632 0 39.232 17.6 39.232 39.234 0 21.632-17.6 39.232-39.232 39.232m0-83.379c-24.342 0-44.145 19.804-44.145 44.147 0 24.34 19.803 44.143 44.145 44.143 24.34 0 44.145-19.803 44.145-44.143 0-24.343-19.804-44.147-44.145-44.147" id="Fill-25" fill="#D7D925"></path>
      </g>
    </g>
  </g>
</svg>
