<?xml version="1.0" encoding="UTF-8"?>
<svg xmlns="http://www.w3.org/2000/svg" width="68" height="89" viewBox="0 0 68 89">
  <title>Group 4</title>
  <g id="Page-1" stroke="none" stroke-width="1" fill="none" fill-rule="evenodd">
    <g id="home-finance" transform="translate(-497 -1538)">
      <g id="Group-11" transform="translate(367 1538)">
        <g id="Group-4" transform="translate(130)">
          <path d="M52.504 78.86h5.76V61.821h-5.76v17.037zm6.776-19.07h-7.79c-.561 0-1.016.456-1.016 1.016v19.068c0 .56.455 1.015 1.015 1.015h7.79c.562 0 1.016-.455 1.016-1.015V60.806c0-.56-.454-1.015-1.015-1.015zM23.86 53.9h5.76v-4.558h-5.76V53.9zm6.776-6.588h-7.79c-.561 0-1.015.454-1.015 1.015v6.588c0 .561.454 1.015 1.015 1.015h7.79c.56 0 1.014-.454 1.014-1.015v-6.588c0-.561-.454-1.015-1.014-1.015zm7.547 6.588h5.76v-4.558h-5.76V53.9zm6.774-6.588h-7.79c-.56 0-1.014.454-1.014 1.015v6.588c0 .561.453 1.015 1.015 1.015h7.79c.56 0 1.014-.454 1.014-1.015v-6.588c0-.561-.454-1.015-1.015-1.015zm7.547 6.588h5.76v-4.558h-5.76V53.9zm6.776-6.588h-7.79c-.561 0-1.016.454-1.016 1.015v6.588c0 .561.455 1.015 1.015 1.015h7.79c.562 0 1.016-.454 1.016-1.015v-6.588c0-.561-.454-1.015-1.015-1.015zM9.537 53.9h5.761v-4.558h-5.76V53.9zm-1.015 2.03h7.79c.562 0 1.016-.454 1.016-1.015v-6.588c0-.561-.454-1.015-1.015-1.015h-7.79c-.56 0-1.016.454-1.016 1.015v6.588c0 .561.455 1.015 1.015 1.015zm15.339 10.45h5.76v-4.558h-5.76v4.558zm6.775-6.59h-7.79c-.561 0-1.015.456-1.015 1.016v6.589c0 .56.454 1.015 1.015 1.015h7.79c.56 0 1.014-.455 1.014-1.015v-6.59c0-.56-.454-1.014-1.014-1.014zm7.547 6.59h5.76v-4.558h-5.76v4.558zm6.774-6.59h-7.79c-.56 0-1.014.456-1.014 1.016v6.589c0 .56.453 1.015 1.015 1.015h7.79c.56 0 1.014-.455 1.014-1.015v-6.59c0-.56-.454-1.014-1.015-1.014zM9.537 66.38h5.761V61.82h-5.76v4.558zm-1.015 2.03h7.79c.562 0 1.016-.454 1.016-1.014v-6.59c0-.56-.454-1.014-1.015-1.014h-7.79c-.56 0-1.016.455-1.016 1.015v6.589c0 .56.455 1.015 1.015 1.015zm15.339 10.45h5.76v-4.558h-5.76v4.558zm6.775-6.589h-7.79c-.561 0-1.015.455-1.015 1.015v6.59c0 .56.454 1.014 1.015 1.014h7.79c.56 0 1.014-.455 1.014-1.015v-6.589c0-.56-.454-1.015-1.014-1.015zm7.547 6.59h5.76V74.3h-5.76v4.558zm6.774-6.59h-7.79c-.56 0-1.014.455-1.014 1.015v6.59c0 .56.453 1.014 1.015 1.014h7.79c.56 0 1.014-.455 1.014-1.015v-6.589c0-.56-.454-1.015-1.015-1.015zm-35.42 6.588h5.761V74.3h-5.76v4.558zM8.522 80.89h7.79c.562 0 1.016-.455 1.016-1.015v-6.589c0-.56-.454-1.015-1.015-1.015h-7.79c-.56 0-1.016.455-1.016 1.015v6.59c0 .56.455 1.014 1.015 1.014zm15.339-39.468h5.76v-4.558h-5.76v4.558zm6.775-6.588h-7.79c-.561 0-1.015.454-1.015 1.015v6.588c0 .56.454 1.015 1.015 1.015h7.79c.56 0 1.014-.454 1.014-1.015v-6.588c0-.561-.454-1.015-1.014-1.015zm7.547 6.588h5.76v-4.558h-5.76v4.558zm6.774-6.588h-7.79c-.56 0-1.014.454-1.014 1.015v6.588c0 .56.453 1.015 1.015 1.015h7.79c.56 0 1.014-.454 1.014-1.015v-6.588c0-.561-.454-1.015-1.015-1.015zm7.547 6.588h5.76v-4.558h-5.76v4.558zm6.776-6.588h-7.79c-.561 0-1.016.454-1.016 1.015v6.588c0 .56.455 1.015 1.015 1.015h7.79c.562 0 1.016-.454 1.016-1.015v-6.588c0-.561-.454-1.015-1.015-1.015zM9.537 41.42h5.761v-4.558h-5.76v4.558zm-1.015 2.03h7.79c.562 0 1.016-.454 1.016-1.015v-6.588c0-.561-.454-1.015-1.015-1.015h-7.79c-.56 0-1.016.454-1.016 1.015v6.588c0 .56.455 1.015 1.015 1.015zm1.015-21.042h48.728V9.151H9.537V22.41zm-1.015 2.029H59.28c.561 0 1.015-.454 1.015-1.015V8.136c0-.561-.454-1.015-1.015-1.015H8.522c-.56 0-1.015.454-1.015 1.015v15.287c0 .561.455 1.015 1.015 1.015zM2.03 86.581h63.743V2.029H2.03v84.552zM66.788 0H1.015C.454 0 0 .454 0 1.015v86.58c0 .562.454 1.016 1.015 1.016h65.773c.56 0 1.015-.454 1.015-1.015V1.015c0-.56-.455-1.015-1.015-1.015z" id="Fill-1" fill="#000"></path>
          <path id="Fill-3" fill="#D7D925" d="M52.504 78.86h5.76V61.821h-5.76z"></path>
        </g>
      </g>
    </g>
  </g>
</svg>
