<?xml version="1.0" encoding="UTF-8"?>
<svg xmlns="http://www.w3.org/2000/svg" width="85" height="76" viewBox="0 0 85 76">
  <title>Trolley icon</title>
  <g id="Page-1" stroke="none" stroke-width="1" fill="none" fill-rule="evenodd">
    <g id="intermediaries" transform="translate(-262 -862)">
      <g id="Group" transform="translate(0 846.087)">
        <g id="Trolley-icon" transform="translate(262 16)">
          <path d="M64.328 72.407c-3.306 0-5.998-2.72-5.998-6.067 0-3.344 2.692-6.065 5.998-6.065 3.307 0 5.999 2.72 5.999 6.065 0 3.346-2.692 6.067-5.999 6.067zm0-14.725c-4.721 0-8.561 3.884-8.561 8.658 0 4.775 3.84 8.66 8.561 8.66 4.722 0 8.562-3.885 8.562-8.66 0-4.774-3.84-8.658-8.562-8.658zM31.034 72.407c-3.307 0-5.997-2.72-5.997-6.067 0-3.344 2.69-6.065 5.997-6.065 3.308 0 5.998 2.72 5.998 6.065 0 3.346-2.69 6.067-5.998 6.067zm0-14.725c-4.72 0-8.56 3.884-8.56 8.658 0 4.775 3.84 8.66 8.56 8.66 4.722 0 8.561-3.885 8.561-8.66 0-4.774-3.84-8.658-8.561-8.658zM79.53 25.535a1.24 1.24 0 0 0-.532-.124H61.33V14.728h20.763L79.53 25.535zM73.269 51.96H61.33V41.278H75.8L73.27 51.96zM35.1 14.728V25.41H17.431c-.19 0-.369.048-.533.124l-2.56-10.807h20.761zm2.564 10.682h21.104V14.728H37.663V25.41zm0 26.55h21.104V41.278H37.663V51.96zm-14.501 0l-2.533-10.682h14.47V51.96H23.162zm-5.678-23.956h17.615v10.682H20.015l-.966-4.083-1.565-6.6zm20.179 10.682h21.104V28.004H37.663v10.682zm38.752 0H61.33V28.004h17.617l-2.532 10.682zm8.309-26.057a1.272 1.272 0 0 0-1.006-.494H13.724L11.083.995A1.285 1.285 0 0 0 9.836 0H1.282C.572 0 0 .58 0 1.296c0 .716.573 1.297 1.282 1.297h7.542l12.08 50.965c.034.147.093.282.17.404.045.067.105.118.16.176.042.045.077.098.125.139.062.049.138.079.21.116.053.028.1.066.158.087.134.047.276.073.422.073H74.28c.594 0 1.108-.411 1.247-.995l9.438-39.825a1.307 1.307 0 0 0-.241-1.104z" id="Trolley" fill="#1D1D1B"></path>
          <path d="M31 72c-3.308 0-6-2.691-6-6s2.692-6 6-6 6 2.691 6 6-2.692 6-6 6M64 72c-3.308 0-6-2.691-6-6s2.692-6 6-6 6 2.691 6 6-2.692 6-6 6" id="Fill" fill="#21AAA4"></path>
        </g>
      </g>
    </g>
  </g>
</svg>
