<?xml version="1.0" encoding="UTF-8"?>
<svg xmlns="http://www.w3.org/2000/svg" width="97" height="82" viewBox="0 0 97 82">
  <title>Book icon</title>
  <g id="Page-1" stroke="none" stroke-width="1" fill="none" fill-rule="evenodd">
    <g id="intermediaries" transform="translate(-519 -855)">
      <g id="Group" transform="translate(0 846.087)">
        <g id="Book-icon" transform="translate(519 9)">
          <path d="M94.891 13.734h-7.428v52.635c0 .492-.31.924-.762 1.06L55.92 76.788h38.972V13.734zM2.11 76.787H41.08L10.298 67.43c-.45-.137-.76-.57-.76-1.06V13.733h-7.43v63.053zm9.537-11.248l35.8 10.882V17.717c0-2.508-1.606-4.747-3.904-5.445L11.646 2.577v62.962zm37.908-47.822v58.704l35.8-10.882V2.577l-31.897 9.695c-2.298.698-3.903 2.938-3.903 5.445zM97 12.63v65.263c0 .61-.471 1.105-1.054 1.105H53.75c.28.199.475.518.475.898 0 .61-.473 1.105-1.055 1.105H43.83c-.583 0-1.055-.495-1.055-1.105 0-.38.195-.7.474-.898H1.054C.471 78.997 0 78.503 0 77.892V12.629c0-.61.471-1.105 1.054-1.105h8.483V1.105c0-.347.156-.675.421-.884.265-.207.606-.275.927-.177L44.128 10.15c1.886.573 3.418 1.902 4.372 3.601.953-1.699 2.485-3.028 4.37-3.6L86.115.043c.317-.097.662-.03.927.177.265.21.42.537.42.884v10.419h8.484c.583 0 1.054.495 1.054 1.105zM39.23 59.774l-18.782-5.71c-.563-.17-1.145.168-1.306.754-.162.585.16 1.199.72 1.369l18.781 5.71c.098.029.197.043.294.043.457 0 .88-.315 1.013-.797.162-.586-.16-1.2-.72-1.37zm0-12.32l-18.782-5.71c-.563-.17-1.145.167-1.306.752-.162.587.16 1.2.72 1.37l18.781 5.71c.098.029.197.044.294.044.457 0 .88-.315 1.013-.798.162-.587-.16-1.2-.72-1.369zm0-12.322l-18.782-5.71c-.563-.17-1.145.168-1.306.754-.162.587.16 1.199.72 1.369l18.781 5.71c.098.03.197.043.294.043.457 0 .88-.313 1.013-.797.162-.586-.16-1.2-.72-1.37zm0-12.32l-18.782-5.71c-.563-.17-1.145.168-1.306.752-.162.587.16 1.2.72 1.37l18.781 5.71c.098.03.197.044.294.044.457 0 .88-.315 1.013-.798.162-.586-.16-1.199-.72-1.369zM58.062 61.94c.097 0 .196-.014.294-.044l18.783-5.71c.558-.17.881-.783.719-1.368-.162-.585-.744-.923-1.307-.754l-18.782 5.71c-.56.17-.882.783-.72 1.369.133.482.555.797 1.013.797zm0-12.32c.097 0 .196-.015.294-.044l18.783-5.71c.558-.17.881-.783.719-1.37-.162-.584-.744-.92-1.307-.752l-18.782 5.71c-.56.168-.882.781-.72 1.368.133.483.555.798 1.013.798zm0-12.322c.097 0 .196-.014.294-.044l18.783-5.71c.558-.17.881-.781.719-1.368-.162-.585-.744-.923-1.307-.754l-18.782 5.71c-.56.17-.882.783-.72 1.369.133.484.555.797 1.013.797zM57.049 24.18c-.162-.586.16-1.199.72-1.369l18.782-5.71c.563-.17 1.145.169 1.307.753.162.587-.16 1.2-.72 1.37l-18.782 5.71a1.01 1.01 0 0 1-.294.044c-.458 0-.88-.315-1.013-.798z" id="Book" fill="#1D1D1B"></path>
          <path d="M2 13h7.429v52.635c0 .492.31.924.76 1.061l30.783 9.357H2V13zm92.782 63.053H55.81l30.783-9.357c.45-.137.76-.57.76-1.06V13h7.43v63.053z" id="Fill" fill="#21AAA4"></path>
        </g>
      </g>
    </g>
  </g>
</svg>
