<svg width="113" height="86" viewBox="0 0 113 86" version="1.1" xmlns="http://www.w3.org/2000/svg"><title>Speech bubble icon</title><g id="Page-1" stroke="none" stroke-width="1" fill="none" fill-rule="evenodd"><g id="business" transform="translate(-639 -1958)"><g id="05-TALK-TO-AN-EXPERT-MODULE" transform="translate(0 1908)"><g id="Speech-bubble-icon" transform="translate(639 50)"><path id="Fill" fill="#FFF" d="M39.844 45.906v24.217h48.709l13.982 13.981V69.895h8.636V19.358H39.844v15.353z"/><path d="M8.877 52.635l10.46-10.459h37.215a1.28 1.28 0 0 0 1.28-1.28V27.753a1.28 1.28 0 1 0-2.56 0v11.865H18.808c-.34 0-.666.136-.905.375l-8.65 8.65V40.72c0-.707-.572-1.28-1.28-1.28H2.56V2.839h52.714v10.618a1.278 1.278 0 1 0 2.558 0V1.559a1.28 1.28 0 0 0-1.28-1.28H1.282C.572.28 0 .851 0 1.56V40.72C0 41.426.573 42 1.28 42h5.412v9.73a1.28 1.28 0 0 0 2.184.905m93.658 32.75c-.332 0-.66-.131-.904-.375L88.023 71.402H39.844c-.707 0-1.28-.572-1.28-1.28V45.906a1.28 1.28 0 1 1 2.56 0v22.937h47.429c.34 0 .665.134.904.375l11.799 11.799V69.895c0-.707.572-1.28 1.28-1.28h7.356V20.637H41.123v14.074a1.278 1.278 0 1 1-2.558 0V19.358c0-.706.572-1.28 1.28-1.28h71.326c.708 0 1.28.574 1.28 1.28v50.537c0 .707-.572 1.279-1.28 1.279h-7.356v12.931a1.28 1.28 0 0 1-1.28 1.28" id="Speech-bubbles" fill="#000"/></g></g></g></g></svg>