<svg width="40" height="40" viewBox="0 0 40 40" version="1.1" xmlns="http://www.w3.org/2000/svg"><title>icons/social/linked in/teal</title><g id="icons/social/linked-in/teal" stroke="none" stroke-width="1" fill="none" fill-rule="evenodd"><g id="Linked-In-Copy-3" transform="translate(10 10)" fill="#FFF"><path d="M1.27 6.74h3.514v12.35H1.271V6.74zm1.668-1.546h-.026C1.64 5.194.816 4.25.816 3.054c0-1.22.849-2.145 2.146-2.145 1.296 0 2.093.923 2.119 2.142 0 1.196-.823 2.143-2.143 2.143zm15.904 13.897h-3.984v-6.392c0-1.673-.623-2.814-1.993-2.814-1.049 0-1.632.77-1.903 1.513-.102.266-.086.637-.086 1.01v6.683H6.93s.051-11.323 0-12.352h3.947v1.939c.233-.848 1.495-2.058 3.507-2.058 2.497 0 4.46 1.778 4.46 5.602v6.869z" id="Shape"/></g></g></svg>