<svg width="13" height="22" viewBox="0 0 13 22" version="1.1" xmlns="http://www.w3.org/2000/svg"><title>Help icon</title><g id="Page-1" stroke="none" stroke-width="1" fill="none" fill-rule="evenodd"><g id="savings/fixed-term/1yr-fixed-term-deposit" transform="translate(-1235 -37)" fill="#000" stroke="#000"><g id="Group-21" transform="translate(1114 24)"><g id="Help" transform="translate(122)"><path d="M5.011 32a1.005 1.005 0 0 0-1.01.98A1.025 1.025 0 0 0 5.011 34c.545-.005.99-.458.988-1.004A.99.99 0 0 0 5.011 32m.502-18c3.582.035 6.187 3.169 5.32 6.4-.22.819-.698 1.496-1.33 2.076-.515.473-1.058.919-1.59 1.374-1.004.857-1.476 1.933-1.483 3.2-.003.426-.195.743-.623.89-.409.138-.79.038-1.04-.293a1.113 1.113 0 0 1-.208-.626c-.017-1.694.605-3.15 1.906-4.33.475-.43.962-.849 1.464-1.251 1.685-1.351 1.307-3.185.482-4.264-1.039-1.358-3.029-1.801-4.576-1.01-1.217.623-1.865 1.597-1.938 2.903-.035.61-.428 1.02-.977 1.005-.557-.014-.934-.444-.92-1.05.066-2.786 2.552-5.052 5.513-5.024" id="Help-icon"/></g></g></g></g></svg>