<svg width="113" height="86" viewBox="0 0 113 86" version="1.1" xmlns="http://www.w3.org/2000/svg" xmlns:xlink="http://www.w3.org/1999/xlink"><title>Group 17 Copy</title><defs><path id="path-1" d="M0 .616h112.45V85.72H0z"/></defs><g id="Page-1" stroke="none" stroke-width="1" fill="none" fill-rule="evenodd"><g id="about" transform="translate(-644 -3229)"><g id="09-NEED-TO-TALK-|-MAKE-A-COMPLAINT" transform="translate(0 3172)"><g id="Group-3" transform="translate(644 56)"><g id="Group-17-Copy"><path id="Fill-1" fill-opacity=".37" fill="#147795" d="M39.844 46.906v24.217h48.709l13.982 13.981V70.895h8.636V20.358H39.844v15.353z"/><g id="Group-4" transform="translate(0 .664)"><mask id="mask-2" fill="#fff"><use xlink:href="#path-1"/></mask><path d="M8.877 52.972l10.46-10.46h37.215a1.28 1.28 0 0 0 1.28-1.279V28.09a1.28 1.28 0 1 0-2.56 0v11.865H18.808c-.34 0-.666.135-.905.375l-8.65 8.65v-7.922c0-.708-.572-1.28-1.28-1.28H2.56V3.175h52.714v10.617a1.278 1.278 0 1 0 2.558 0V1.895a1.28 1.28 0 0 0-1.28-1.28H1.282C.572.616 0 1.189 0 1.896v39.162c0 .706.572 1.28 1.28 1.28h5.412v9.73a1.28 1.28 0 0 0 2.184.905m93.658 32.749c-.332 0-.66-.13-.904-.375L88.023 71.738H39.844c-.707 0-1.28-.572-1.28-1.28V46.243a1.28 1.28 0 1 1 2.56 0V69.18h47.429c.34 0 .665.135.904.375l11.799 11.8V70.23c0-.706.572-1.28 1.28-1.28h7.356V20.975H41.123v14.073a1.278 1.278 0 1 1-2.558 0V19.694c0-.706.572-1.279 1.28-1.279h71.326c.708 0 1.28.573 1.28 1.28V70.23c0 .708-.572 1.28-1.28 1.28h-7.356v12.93a1.28 1.28 0 0 1-1.28 1.28" id="Fill-2" fill="#000" mask="url(#mask-2)"/></g></g></g></g></g></g></svg>