<svg width="40" height="40" viewBox="0 0 40 40" version="1.1" xmlns="http://www.w3.org/2000/svg"><title>icons/social/twitter/business grad</title><g id="icons/social/twitter/business-grad" stroke="none" stroke-width="1" fill="none" fill-rule="evenodd"><path d="M27.751 14.405a4.1 4.1 0 0 0 1.721-2.284 7.596 7.596 0 0 1-2.487 1.002 3.813 3.813 0 0 0-2.859-1.305c-2.163 0-3.915 1.85-3.915 4.13 0 .325.032.64.1.941-3.255-.172-6.14-1.815-8.073-4.316a4.294 4.294 0 0 0-.53 2.078c0 1.432.691 2.697 1.743 3.44a3.777 3.777 0 0 1-1.775-.517v.05c0 2.003 1.349 3.672 3.143 4.05-.33.098-.675.146-1.033.146-.253 0-.5-.025-.737-.073.498 1.64 1.945 2.836 3.659 2.868a7.604 7.604 0 0 1-5.799 1.711 10.68 10.68 0 0 0 6.004 1.856c7.205 0 11.143-6.295 11.143-11.753 0-.18-.002-.359-.01-.535A8.187 8.187 0 0 0 30 13.755a7.507 7.507 0 0 1-2.249.65z" id="Shape" fill="#FFF"/></g></svg>