<?xml version="1.0" encoding="UTF-8"?>
<svg xmlns="http://www.w3.org/2000/svg" xmlns:xlink="http://www.w3.org/1999/xlink" width="80" height="90" viewBox="0 0 80 90">
  <title>Group 11</title>
  <defs>
    <path id="path-1" d="M0 1.123h79.768v89.623H0z"></path>
    <path id="path-3" d="M0 90.818h79.768V1.194H0z"></path>
  </defs>
  <g id="Page-1" stroke="none" stroke-width="1" fill="none" fill-rule="evenodd">
    <g id="savings/notice" transform="translate(-1053 -548)">
      <g id="Group-12" transform="translate(952.164 546)">
        <g id="Group-11" transform="translate(100.848 .844)">
          <g id="Group-3" transform="translate(0 .071)">
            <mask id="mask-2" fill="#fff">
              <use xlink:href="#path-1"></use>
            </mask>
            <path d="M77.38 25.31H2.388V10.84h7.826v2.503c0 2.922 2.377 5.3 5.3 5.3a5.307 5.307 0 0 0 5.301-5.3V10.84h5.645v2.503c0 2.922 2.378 5.3 5.301 5.3s5.3-2.378 5.3-5.3V10.84h5.646v2.503c0 2.922 2.377 5.3 5.3 5.3a5.307 5.307 0 0 0 5.302-5.3V10.84h5.644v2.503c0 2.922 2.378 5.3 5.301 5.3s5.3-2.378 5.3-5.3V10.84h7.826v14.47zM2.388 88.358H77.38v-60.66H2.388v60.66zM12.482 6.424a3.034 3.034 0 0 1 3.032-3.032 3.035 3.035 0 0 1 3.033 3.032v6.92a3.035 3.035 0 0 1-3.033 3.031 3.035 3.035 0 0 1-3.032-3.032V6.424zm16.247 0a3.034 3.034 0 0 1 3.032-3.032 3.034 3.034 0 0 1 3.032 3.032v6.92a3.035 3.035 0 0 1-3.032 3.031 3.035 3.035 0 0 1-3.032-3.032V6.424zm16.246 0a3.034 3.034 0 0 1 3.032-3.032 3.034 3.034 0 0 1 3.032 3.032v6.92a3.034 3.034 0 0 1-3.032 3.031 3.035 3.035 0 0 1-3.032-3.032V6.424zm16.248 0a3.034 3.034 0 0 1 3.031-3.032 3.034 3.034 0 0 1 3.032 3.032v6.92a3.035 3.035 0 0 1-3.032 3.031 3.034 3.034 0 0 1-3.031-3.032V6.424zm17.351 2.027h-9.02V6.424a5.307 5.307 0 0 0-5.3-5.301 5.308 5.308 0 0 0-5.301 5.301v2.027h-5.644V6.424a5.307 5.307 0 0 0-5.302-5.301 5.307 5.307 0 0 0-5.3 5.301v2.027H37.06V6.424a5.307 5.307 0 0 0-5.3-5.301 5.308 5.308 0 0 0-5.301 5.301v2.027h-5.645V6.424a5.307 5.307 0 0 0-5.301-5.301 5.307 5.307 0 0 0-5.3 5.301v2.027h-9.02C.534 8.451 0 8.986 0 9.645v79.907c0 .66.535 1.194 1.194 1.194h77.38c.66 0 1.194-.533 1.194-1.194V9.645c0-.659-.533-1.194-1.194-1.194z" id="Fill-1" fill="#000" mask="url(#mask-2)"></path>
          </g>
          <mask id="mask-4" fill="#fff">
            <use xlink:href="#path-3"></use>
          </mask>
          <path id="Fill-4" fill="#FFF" mask="url(#mask-4)" d="M2.388 88.43H77.38V27.77H2.388z"></path>
          <path d="M69.555 13.414c0 2.923-2.377 5.3-5.3 5.3a5.306 5.306 0 0 1-5.302-5.3V10.91H53.31v2.504c0 2.923-2.379 5.3-5.302 5.3a5.306 5.306 0 0 1-5.3-5.3V10.91h-5.645v2.504c0 2.923-2.378 5.3-5.3 5.3a5.306 5.306 0 0 1-5.302-5.3V10.91h-5.644v2.504c0 2.923-2.379 5.3-5.302 5.3a5.306 5.306 0 0 1-5.3-5.3V10.91H2.388v14.47h74.993V10.91h-7.826v2.504z" id="Fill-6" fill="#D7D925" mask="url(#mask-4)"></path>
          <path d="M15.515 3.463a3.035 3.035 0 0 0-3.032 3.032v6.92a3.035 3.035 0 0 0 3.032 3.03 3.035 3.035 0 0 0 3.031-3.03v-6.92a3.035 3.035 0 0 0-3.031-3.032m16.245 0a3.035 3.035 0 0 0-3.031 3.032v6.92a3.035 3.035 0 0 0 3.031 3.03 3.035 3.035 0 0 0 3.033-3.03v-6.92a3.035 3.035 0 0 0-3.033-3.032m16.248 0a3.034 3.034 0 0 0-3.032 3.032v6.92a3.034 3.034 0 0 0 3.032 3.03 3.035 3.035 0 0 0 3.031-3.03v-6.92a3.035 3.035 0 0 0-3.031-3.032m19.277 3.032v6.92a3.034 3.034 0 0 1-3.031 3.03 3.035 3.035 0 0 1-3.032-3.03v-6.92a3.035 3.035 0 0 1 3.032-3.032 3.034 3.034 0 0 1 3.031 3.032" id="Fill-7" fill="#FFF" mask="url(#mask-4)"></path>
          <path d="M7.838 48.542l1.63 2.03.233-.18c2.93-2.289 6.486-5.075 6.803-5.35l.13-.116a85.784 85.784 0 0 0-.21 5.868v23.698h2.75v-32.72h-2.286l-9.05 6.77z" id="Fill-8" fill="#000" mask="url(#mask-4)"></path>
          <path d="M37.927 63.746c2.863-2.923 4.865-5.418 5.948-7.415 1.096-2.019 1.65-4.14 1.65-6.307 0-2.695-.84-4.845-2.5-6.393-1.653-1.54-3.943-2.32-6.807-2.32-3.323 0-6.388 1.162-9.112 3.454l-.22.185 1.55 1.98.236-.187c2.379-1.896 4.903-2.857 7.503-2.857 1.918 0 3.497.578 4.694 1.72 1.193 1.136 1.797 2.637 1.797 4.462 0 1.276-.223 2.511-.661 3.676-.443 1.169-1.147 2.416-2.093 3.707-.958 1.305-2.65 3.216-5.03 5.681l-8.629 9.008v2.352h20.702v-2.707h-16.86l7.832-8.039z" id="Fill-9" fill="#000" mask="url(#mask-4)"></path>
          <path d="M68.767 58.045c0 4.748-.628 8.377-1.868 10.783-1.223 2.375-3.115 3.53-5.787 3.53-2.558 0-4.412-1.118-5.67-3.417-1.275-2.323-1.92-5.99-1.92-10.896 0-4.676.618-8.268 1.836-10.676 1.2-2.374 3.083-3.527 5.754-3.527 2.672 0 4.564 1.154 5.787 3.53 1.24 2.405 1.868 5.997 1.868 10.673m.33-12.454c-1.822-2.87-4.508-4.324-7.985-4.324-3.551 0-6.234 1.407-7.978 4.183-1.713 2.73-2.582 6.967-2.582 12.595 0 5.51.894 9.736 2.66 12.56 1.793 2.871 4.45 4.327 7.9 4.327 3.577 0 6.29-1.415 8.063-4.203 1.744-2.746 2.628-7.014 2.628-12.684 0-5.438-.911-9.628-2.706-12.454" id="Fill-10" fill="#000" mask="url(#mask-4)"></path>
        </g>
      </g>
    </g>
  </g>
</svg>
