<?xml version="1.0" encoding="UTF-8"?>
<svg xmlns="http://www.w3.org/2000/svg" width="80" height="90" viewBox="0 0 80 90">
  <title>Group 14</title>
  <g id="Page-1" stroke="none" stroke-width="1" fill="none" fill-rule="evenodd">
    <g id="savings/notice" transform="translate(-258 -547)">
      <g id="Group-7" transform="translate(157.7 547)">
        <g id="Group-14" transform="translate(100)">
          <path d="M15.79 2.321a3.037 3.037 0 0 0-3.034 3.034v6.924a3.037 3.037 0 0 0 3.034 3.033 3.037 3.037 0 0 0 3.033-3.033V5.355a3.037 3.037 0 0 0-3.033-3.034m16.256 0a3.037 3.037 0 0 0-3.033 3.034v6.924a3.037 3.037 0 0 0 3.033 3.033 3.037 3.037 0 0 0 3.035-3.033V5.355a3.037 3.037 0 0 0-3.035-3.034m16.258 0a3.036 3.036 0 0 0-3.034 3.034v6.924a3.036 3.036 0 0 0 3.034 3.033 3.037 3.037 0 0 0 3.033-3.033V5.355a3.037 3.037 0 0 0-3.033-3.034m19.29 3.034v6.924a3.036 3.036 0 0 1-3.034 3.033 3.037 3.037 0 0 1-3.033-3.033V5.355a3.037 3.037 0 0 1 3.033-3.034 3.036 3.036 0 0 1 3.034 3.034" id="Fill-7" fill="#FFF"></path>
          <path d="M77.786 24.254H2.746V9.774h7.83v2.506a5.31 5.31 0 0 0 5.304 5.303 5.31 5.31 0 0 0 5.305-5.303V9.774h5.648v2.506a5.311 5.311 0 0 0 5.304 5.303 5.31 5.31 0 0 0 5.304-5.303V9.774h5.65v2.506a5.31 5.31 0 0 0 5.303 5.303 5.31 5.31 0 0 0 5.305-5.303V9.774h5.648v2.506a5.311 5.311 0 0 0 5.304 5.303 5.31 5.31 0 0 0 5.304-5.303V9.774h7.83v14.48zM2.746 87.343h75.04v-60.7H2.746v60.7zm10.1-81.987a3.036 3.036 0 0 1 3.034-3.034 3.037 3.037 0 0 1 3.035 3.034v6.924a3.037 3.037 0 0 1-3.035 3.033 3.037 3.037 0 0 1-3.034-3.033V5.356zm16.258 0a3.036 3.036 0 0 1 3.033-3.034 3.036 3.036 0 0 1 3.034 3.034v6.924a3.037 3.037 0 0 1-3.034 3.033 3.037 3.037 0 0 1-3.033-3.033V5.356zm16.256 0a3.036 3.036 0 0 1 3.034-3.034 3.036 3.036 0 0 1 3.033 3.034v6.924a3.036 3.036 0 0 1-3.033 3.033 3.037 3.037 0 0 1-3.034-3.033V5.356zm16.258 0a3.036 3.036 0 0 1 3.033-3.034 3.036 3.036 0 0 1 3.034 3.034v6.924a3.037 3.037 0 0 1-3.034 3.033 3.036 3.036 0 0 1-3.033-3.033V5.356zM78.98 7.384h-9.026V5.356A5.31 5.31 0 0 0 64.651.05a5.311 5.311 0 0 0-5.304 5.305v2.028h-5.648V5.356A5.31 5.31 0 0 0 48.394.05a5.31 5.31 0 0 0-5.304 5.305v2.028h-5.649V5.356A5.31 5.31 0 0 0 32.137.05a5.311 5.311 0 0 0-5.304 5.305v2.028h-5.648V5.356A5.31 5.31 0 0 0 15.88.05a5.31 5.31 0 0 0-5.304 5.305v2.028H1.551C.89 7.384.356 7.92.356 8.58v79.958c0 .661.535 1.195 1.195 1.195h77.43c.66 0 1.194-.534 1.194-1.195V8.58c0-.66-.534-1.195-1.194-1.195z" id="Fill-4" fill="#000"></path>
          <path id="Fill-1" fill="#FFF" d="M2.655 87.342h75.04V26.643H2.656z"></path>
          <path d="M69.865 12.279a5.31 5.31 0 0 1-5.304 5.304 5.31 5.31 0 0 1-5.305-5.304V9.773h-5.648v2.506a5.31 5.31 0 0 1-5.304 5.304A5.31 5.31 0 0 1 43 12.279V9.773h-5.65v2.506a5.31 5.31 0 0 1-5.303 5.304 5.31 5.31 0 0 1-5.305-5.304V9.773h-5.648v2.506a5.31 5.31 0 0 1-5.304 5.304 5.31 5.31 0 0 1-5.304-5.304V9.773h-7.83v14.48h75.04V9.773h-7.831v2.506z" id="Fill-2" fill="#D7D925"></path>
          <path d="M19.825 71.959l-.165-.083v-2.855l.438.228c1.206.633 2.577 1.135 4.076 1.492 1.5.36 2.932.543 4.25.543 3.155 0 5.548-.64 7.11-1.903 1.547-1.247 2.332-3.036 2.332-5.319 0-2.04-.774-3.563-2.367-4.657-1.606-1.104-4.014-1.662-7.163-1.662h-3.773v-2.709h3.816c2.586 0 4.658-.617 6.157-1.835 1.5-1.219 2.23-2.828 2.23-4.922 0-1.714-.587-3.046-1.796-4.072-1.207-1.025-2.819-1.545-4.788-1.545-1.557 0-2.996.22-4.278.655-1.29.437-2.763 1.2-4.373 2.264l-.238.156-1.41-1.928.215-.18c1.269-1.06 2.817-1.911 4.6-2.528a16.655 16.655 0 0 1 5.441-.928c3.02 0 5.394.731 7.055 2.172 1.673 1.454 2.522 3.524 2.522 6.152 0 2.062-.659 3.825-1.959 5.237-1.054 1.147-2.416 1.965-4.056 2.44 2.074.416 3.716 1.205 4.891 2.356 1.403 1.372 2.114 3.233 2.114 5.534 0 3.085-1.07 5.512-3.18 7.213-2.09 1.686-5.123 2.54-9.014 2.54-3.301 0-6.224-.625-8.687-1.856" id="Fill-9" fill="#000"></path>
          <path d="M47.18 49.44l-1.63-2.032 9.054-6.775h2.288v32.742h-2.751V49.662c0-1.89.07-3.86.209-5.873l-.13.115c-.315.274-3.876 3.064-6.808 5.355l-.232.18z" id="Fill-11" fill="#000"></path>
        </g>
      </g>
    </g>
  </g>
</svg>
