<?xml version="1.0" encoding="UTF-8"?>
<svg xmlns="http://www.w3.org/2000/svg" xmlns:xlink="http://www.w3.org/1999/xlink" width="81" height="90" viewBox="0 0 81 90">
  <title>Group 10</title>
  <defs>
    <path id="path-1" d="M0 1.123h79.768v89.623H0z"></path>
    <path id="path-3" d="M0 90.818h79.768V1.194H0z"></path>
  </defs>
  <g id="Page-1" stroke="none" stroke-width="1" fill="none" fill-rule="evenodd">
    <g id="savings/notice" transform="translate(-522 -548)">
      <g id="Group-8" transform="translate(422.52 546)">
        <g id="Group-10" transform="translate(100.367 .844)">
          <g id="Group-3" transform="translate(0 .071)">
            <mask id="mask-2" fill="#fff">
              <use xlink:href="#path-1"></use>
            </mask>
            <path d="M77.38 25.31H2.387V10.84h7.826v2.503c0 2.922 2.377 5.3 5.3 5.3a5.307 5.307 0 0 0 5.302-5.3V10.84h5.644v2.503c0 2.922 2.378 5.3 5.301 5.3s5.3-2.378 5.3-5.3V10.84h5.646v2.503c0 2.922 2.377 5.3 5.3 5.3a5.307 5.307 0 0 0 5.302-5.3V10.84h5.644v2.503c0 2.922 2.379 5.3 5.302 5.3 2.923 0 5.3-2.378 5.3-5.3V10.84h7.826v14.47zM2.387 88.358H77.38v-60.66H2.387v60.66zM12.482 6.424a3.034 3.034 0 0 1 3.031-3.032 3.035 3.035 0 0 1 3.033 3.032v6.92a3.035 3.035 0 0 1-3.033 3.031 3.035 3.035 0 0 1-3.031-3.032V6.424zm16.247 0a3.034 3.034 0 0 1 3.031-3.032 3.034 3.034 0 0 1 3.032 3.032v6.92a3.035 3.035 0 0 1-3.032 3.031 3.035 3.035 0 0 1-3.031-3.032V6.424zm16.246 0a3.034 3.034 0 0 1 3.031-3.032 3.034 3.034 0 0 1 3.032 3.032v6.92a3.034 3.034 0 0 1-3.032 3.031 3.035 3.035 0 0 1-3.031-3.032V6.424zm16.247 0a3.034 3.034 0 0 1 3.032-3.032 3.034 3.034 0 0 1 3.031 3.032v6.92a3.035 3.035 0 0 1-3.031 3.031 3.034 3.034 0 0 1-3.032-3.032V6.424zm17.352 2.027h-9.02V6.424a5.307 5.307 0 0 0-5.3-5.301 5.308 5.308 0 0 0-5.302 5.301v2.027h-5.644V6.424a5.307 5.307 0 0 0-5.302-5.301 5.307 5.307 0 0 0-5.3 5.301v2.027h-5.645V6.424a5.307 5.307 0 0 0-5.3-5.301 5.308 5.308 0 0 0-5.302 5.301v2.027h-5.644V6.424a5.307 5.307 0 0 0-5.302-5.301 5.307 5.307 0 0 0-5.3 5.301v2.027h-9.02C.534 8.451 0 8.986 0 9.645v79.907c0 .66.535 1.194 1.194 1.194h77.38c.66 0 1.195-.533 1.195-1.194V9.645c0-.659-.534-1.194-1.194-1.194z" id="Fill-1" fill="#000" mask="url(#mask-2)"></path>
          </g>
          <mask id="mask-4" fill="#fff">
            <use xlink:href="#path-3"></use>
          </mask>
          <path id="Fill-4" fill="#FFF" mask="url(#mask-4)" d="M2.387 88.43h74.992V27.77H2.387z"></path>
          <path d="M69.554 13.414c0 2.923-2.377 5.3-5.3 5.3a5.306 5.306 0 0 1-5.302-5.3V10.91h-5.644v2.504c0 2.923-2.378 5.3-5.301 5.3a5.306 5.306 0 0 1-5.3-5.3V10.91H37.06v2.504c0 2.923-2.377 5.3-5.3 5.3a5.306 5.306 0 0 1-5.302-5.3V10.91h-5.644v2.504c0 2.923-2.378 5.3-5.301 5.3a5.306 5.306 0 0 1-5.3-5.3V10.91H2.387v14.47H77.38V10.91h-7.826v2.504z" id="Fill-6" fill="#D7D925" mask="url(#mask-4)"></path>
          <path d="M15.514 3.463a3.035 3.035 0 0 0-3.032 3.032v6.92a3.035 3.035 0 0 0 3.032 3.03 3.035 3.035 0 0 0 3.032-3.03v-6.92a3.035 3.035 0 0 0-3.032-3.032m16.246 0a3.035 3.035 0 0 0-3.032 3.032v6.92a3.035 3.035 0 0 0 3.032 3.03 3.035 3.035 0 0 0 3.033-3.03v-6.92a3.035 3.035 0 0 0-3.033-3.032m16.247 0a3.034 3.034 0 0 0-3.032 3.032v6.92a3.034 3.034 0 0 0 3.032 3.03 3.035 3.035 0 0 0 3.032-3.03v-6.92a3.035 3.035 0 0 0-3.032-3.032m19.278 3.032v6.92a3.034 3.034 0 0 1-3.032 3.03 3.035 3.035 0 0 1-3.032-3.03v-6.92a3.035 3.035 0 0 1 3.032-3.032 3.034 3.034 0 0 1 3.032 3.032" id="Fill-7" fill="#FFF" mask="url(#mask-4)"></path>
          <path d="M34.822 63.977c0 2.71-.647 4.817-1.923 6.261-1.27 1.436-3.078 2.164-5.38 2.164-1.425 0-2.744-.426-3.925-1.265-1.19-.845-2.15-2.008-2.848-3.455a10.402 10.402 0 0 1-1.06-4.562c0-1.075.367-2.144 1.09-3.179.73-1.046 1.725-1.897 2.957-2.531 1.233-.636 2.588-.956 4.028-.956 2.175 0 3.914.663 5.167 1.973 1.257 1.313 1.894 3.18 1.894 5.55m-7.018-9.923c-1.635 0-3.21.381-4.683 1.132-1.35.688-2.574 1.692-3.644 2.985.298-4.629 1.409-8.217 3.301-10.667 1.947-2.517 4.708-3.795 8.213-3.795 1.466 0 2.732.194 3.762.575l.403.149v-2.585l-.214-.063c-1.166-.344-2.465-.519-3.864-.519-2.989 0-5.583.712-7.712 2.116-2.13 1.404-3.793 3.583-4.946 6.477-1.144 2.872-1.725 6.455-1.725 10.647 0 4.497.97 8.058 2.884 10.584 1.935 2.549 4.605 3.842 7.94 3.842 3.089 0 5.584-.989 7.414-2.94 1.825-1.945 2.75-4.628 2.75-7.972 0-3.083-.883-5.542-2.624-7.306-1.742-1.765-4.183-2.66-7.255-2.66" id="Fill-8" fill="#000" mask="url(#mask-4)"></path>
          <path d="M60.037 58.045c0 4.748-.628 8.377-1.867 10.783-1.223 2.375-3.116 3.53-5.788 3.53-2.558 0-4.412-1.118-5.67-3.417-1.274-2.323-1.92-5.99-1.92-10.896 0-4.676.618-8.268 1.836-10.676 1.2-2.374 3.083-3.527 5.754-3.527 2.672 0 4.565 1.154 5.788 3.53 1.239 2.405 1.867 5.997 1.867 10.673m.33-12.454c-1.821-2.87-4.508-4.324-7.985-4.324-3.551 0-6.234 1.407-7.977 4.183-1.714 2.73-2.583 6.967-2.583 12.595 0 5.51.894 9.736 2.66 12.56 1.794 2.871 4.45 4.327 7.9 4.327 3.577 0 6.29-1.415 8.063-4.203 1.745-2.746 2.628-7.014 2.628-12.684 0-5.438-.91-9.628-2.705-12.454" id="Fill-9" fill="#000" mask="url(#mask-4)"></path>
        </g>
      </g>
    </g>
  </g>
</svg>
