<?xml version="1.0" encoding="UTF-8"?>
<svg xmlns="http://www.w3.org/2000/svg" xmlns:xlink="http://www.w3.org/1999/xlink" width="81" height="90" viewBox="0 0 81 90">
  <title>Group 15</title>
  <defs>
    <path id="path-1" d="M0 1.123h79.768v89.623H0z"></path>
    <path id="path-3" d="M0 90.818h79.768V1.194H0z"></path>
  </defs>
  <g id="Page-1" stroke="none" stroke-width="1" fill="none" fill-rule="evenodd">
    <g id="savings/notice" transform="translate(-787 -548)">
      <g id="Group-9" transform="translate(687.342 546)">
        <g id="Group-15" transform="translate(100)">
          <g id="Group-11" transform="translate(.434 .844)">
            <g id="Group-3" transform="translate(0 .071)">
              <mask id="mask-2" fill="#fff">
                <use xlink:href="#path-1"></use>
              </mask>
              <path d="M77.38 25.31H2.388V10.84h7.826v2.503c0 2.922 2.377 5.3 5.3 5.3a5.307 5.307 0 0 0 5.301-5.3V10.84h5.645v2.503c0 2.922 2.378 5.3 5.301 5.3s5.3-2.378 5.3-5.3V10.84h5.646v2.503c0 2.922 2.377 5.3 5.3 5.3a5.307 5.307 0 0 0 5.302-5.3V10.84h5.644v2.503c0 2.922 2.378 5.3 5.301 5.3s5.3-2.378 5.3-5.3V10.84h7.826v14.47zM2.388 88.358H77.38v-60.66H2.388v60.66zM12.482 6.424a3.034 3.034 0 0 1 3.032-3.032 3.035 3.035 0 0 1 3.033 3.032v6.92a3.035 3.035 0 0 1-3.033 3.031 3.035 3.035 0 0 1-3.032-3.032V6.424zm16.247 0a3.034 3.034 0 0 1 3.032-3.032 3.034 3.034 0 0 1 3.032 3.032v6.92a3.035 3.035 0 0 1-3.032 3.031 3.035 3.035 0 0 1-3.032-3.032V6.424zm16.246 0a3.034 3.034 0 0 1 3.032-3.032 3.034 3.034 0 0 1 3.032 3.032v6.92a3.034 3.034 0 0 1-3.032 3.031 3.035 3.035 0 0 1-3.032-3.032V6.424zm16.248 0a3.034 3.034 0 0 1 3.031-3.032 3.034 3.034 0 0 1 3.032 3.032v6.92a3.035 3.035 0 0 1-3.032 3.031 3.034 3.034 0 0 1-3.031-3.032V6.424zm17.351 2.027h-9.02V6.424a5.307 5.307 0 0 0-5.3-5.301 5.308 5.308 0 0 0-5.301 5.301v2.027h-5.644V6.424a5.307 5.307 0 0 0-5.302-5.301 5.307 5.307 0 0 0-5.3 5.301v2.027H37.06V6.424a5.307 5.307 0 0 0-5.3-5.301 5.308 5.308 0 0 0-5.301 5.301v2.027h-5.645V6.424a5.307 5.307 0 0 0-5.301-5.301 5.307 5.307 0 0 0-5.3 5.301v2.027h-9.02C.534 8.451 0 8.986 0 9.645v79.907c0 .66.535 1.194 1.194 1.194h77.38c.66 0 1.194-.533 1.194-1.194V9.645c0-.659-.533-1.194-1.194-1.194z" id="Fill-1" fill="#000" mask="url(#mask-2)"></path>
            </g>
            <mask id="mask-4" fill="#fff">
              <use xlink:href="#path-3"></use>
            </mask>
            <path id="Fill-4" fill="#FFF" mask="url(#mask-4)" d="M2.388 88.43H77.38V27.77H2.388z"></path>
            <path d="M69.555 13.414c0 2.923-2.377 5.3-5.3 5.3a5.306 5.306 0 0 1-5.302-5.3V10.91H53.31v2.504c0 2.923-2.379 5.3-5.302 5.3a5.306 5.306 0 0 1-5.3-5.3V10.91h-5.645v2.504c0 2.923-2.378 5.3-5.3 5.3a5.306 5.306 0 0 1-5.302-5.3V10.91h-5.644v2.504c0 2.923-2.379 5.3-5.302 5.3a5.306 5.306 0 0 1-5.3-5.3V10.91H2.388v14.47h74.993V10.91h-7.826v2.504z" id="Fill-6" fill="#D7D925" mask="url(#mask-4)"></path>
            <path d="M15.515 3.463a3.035 3.035 0 0 0-3.032 3.032v6.92a3.035 3.035 0 0 0 3.032 3.03 3.035 3.035 0 0 0 3.031-3.03v-6.92a3.035 3.035 0 0 0-3.031-3.032m16.245 0a3.035 3.035 0 0 0-3.031 3.032v6.92a3.035 3.035 0 0 0 3.031 3.03 3.035 3.035 0 0 0 3.033-3.03v-6.92a3.035 3.035 0 0 0-3.033-3.032m16.248 0a3.034 3.034 0 0 0-3.032 3.032v6.92a3.034 3.034 0 0 0 3.032 3.03 3.035 3.035 0 0 0 3.031-3.03v-6.92a3.035 3.035 0 0 0-3.031-3.032m19.277 3.032v6.92a3.034 3.034 0 0 1-3.031 3.03 3.035 3.035 0 0 1-3.032-3.03v-6.92a3.035 3.035 0 0 1 3.032-3.032 3.034 3.034 0 0 1 3.031 3.032" id="Fill-7" fill="#FFF" mask="url(#mask-4)"></path>
          </g>
          <path d="M36.343 59.286l-.09-.019c-1.123 1.476-2.46 2.61-4.014 3.402-1.554.792-3.178 1.188-4.87 1.188-3.12 0-5.558-.862-7.309-2.59-1.75-1.727-2.625-4.177-2.625-7.343 0-3.378.957-6.116 2.873-8.209 1.918-2.094 4.41-3.142 7.472-3.142 2.215 0 4.156.581 5.82 1.744 1.663 1.163 2.944 2.867 3.843 5.11.897 2.239 1.345 4.889 1.345 7.95 0 4.402-.577 8.089-1.733 11.059-1.159 2.976-2.849 5.181-5.07 6.611-2.22 1.429-4.903 2.143-8.047 2.143-1.595 0-3.068-.2-4.419-.599l-.072-.096v-1.967l.131-.095c.65.212 1.432.374 2.349.488.918.114 1.62.17 2.103.17 3.735 0 6.656-1.347 8.77-4.043 2.11-2.689 3.291-6.609 3.543-11.762zm-8.563-14.5c-2.381 0-4.274.8-5.688 2.4-1.416 1.605-2.125 3.803-2.125 6.6 0 2.63.655 4.617 1.962 5.969 1.306 1.35 3.178 2.027 5.622 2.027a9.19 9.19 0 0 0 4.265-1.018c1.32-.678 2.367-1.579 3.142-2.7.774-1.12 1.16-2.256 1.16-3.408 0-1.77-.351-3.425-1.054-4.967-.702-1.539-1.681-2.74-2.939-3.606-1.256-.865-2.703-1.298-4.345-1.298zm21.77.708l-1.009 11.578c2.322-.427 4.144-.641 5.469-.641 3.59 0 6.421.868 8.491 2.608 2.074 1.742 3.112 4.141 3.112 7.188 0 3.458-1.079 6.153-3.235 8.079-2.155 1.923-5.12 2.884-8.894 2.884-1.669 0-3.254-.165-4.755-.494-1.505-.33-2.765-.803-3.83-1.504v-2.356l.146-.089c1.64.835 3.097 1.416 4.37 1.742 1.273.325 2.629.488 4.069.488 2.904 0 5.228-.766 6.977-2.296 1.746-1.528 2.619-3.593 2.619-6.202 0-2.456-.849-4.38-2.548-5.777-1.703-1.402-4.02-2.104-6.957-2.104-1.972 0-4.037.296-6.274.875l-1.372-.891-.046-.093L47.21 43.19l.1-.091h16.099l.1.1v2.195l-.1.1H49.55z" id="95" fill="#000" stroke="#000" stroke-width=".2"></path>
        </g>
      </g>
    </g>
  </g>
</svg>
