<?xml version="1.0" encoding="UTF-8"?>
<svg xmlns="http://www.w3.org/2000/svg" xmlns:xlink="http://www.w3.org/1999/xlink" id="Layer_1" data-name="Layer 1" viewBox="0 0 80 90" width="80" height="90">
  <defs>
    <style>.cls-1{fill:#fff;}.cls-1,.cls-2,.cls-4{fill-rule:evenodd;}.cls-2{fill:#d7d925;}.cls-3{mask:url(#mask);}.cls-5{isolation:isolate;}</style>
    <mask id="mask" x="0" y="0.14" width="79.82" height="89.75" maskUnits="userSpaceOnUse">
      <g id="a">
        <path class="cls-1" d="M0,.14H79.82V89.82H0Z"></path>
      </g>
    </mask>
  </defs>
  <title>cal2</title>
  <path class="cls-1" d="M2.39,87.5h75V26.8h-75Z"></path>
  <path class="cls-2" d="M69.6,12.44a5.31,5.31,0,0,1-10.61,0V9.93H53.34v2.51a5.31,5.31,0,0,1-10.61,0V9.93H37.09v2.51a5.31,5.31,0,0,1-10.61,0V9.93H20.83v2.51a5.31,5.31,0,0,1-10.61,0V9.93H2.39V24.41h75V9.93H69.6Z"></path>
  <g class="cls-3">
    <path class="cls-4" d="M77.43,24.41h-75V9.93h7.83v2.51a5.31,5.31,0,0,0,10.61,0V9.93h5.65v2.51a5.3,5.3,0,1,0,10.6,0V9.93h5.65v2.51a5.31,5.31,0,0,0,10.61,0V9.93H59v2.51a5.31,5.31,0,0,0,10.61,0V9.93h7.83ZM2.39,87.5h75V26.8h-75Zm10.1-82a3,3,0,0,1,6.07,0v6.93a3,3,0,0,1-6.07,0Zm16.26,0a3,3,0,0,1,6.06,0v6.93a3,3,0,0,1-6.06,0ZM45,5.51a3,3,0,0,1,6.07,0v6.93a3,3,0,0,1-6.07,0Zm16.26,0a3,3,0,0,1,6.07,0v6.93a3,3,0,0,1-6.07,0Zm17.36,2h-9v-2A5.31,5.31,0,0,0,59,5.51v2H53.34v-2a5.31,5.31,0,0,0-10.61,0v2H37.08v-2a5.3,5.3,0,1,0-10.6,0v2H20.83v-2a5.31,5.31,0,0,0-10.61,0v2h-9A1.19,1.19,0,0,0,0,8.74v80a1.19,1.19,0,0,0,1.19,1.2H78.62a1.2,1.2,0,0,0,1.2-1.2V8.74A1.2,1.2,0,0,0,78.62,7.54Z"></path>
  </g>
  <path class="cls-1" d="M15.52,2.48a3,3,0,0,0-3,3v6.93a3,3,0,0,0,6.07,0V5.51a3,3,0,0,0-3-3m16.26,0a3,3,0,0,0-3,3v6.93a3,3,0,0,0,6.07,0V5.51a3,3,0,0,0-3-3M48,2.48a3,3,0,0,0-3,3v6.93a3,3,0,0,0,6.07,0V5.51a3,3,0,0,0-3-3m19.29,3v6.93a3,3,0,0,1-6.07,0V5.51a3,3,0,0,1,6.07,0"></path>
  <g class="cls-5">
    <g class="cls-5">
      <path d="M51,72H30.34V68.93l8.27-8.32a62.78,62.78,0,0,0,5-5.45A14,14,0,0,0,45.4,52a9.12,9.12,0,0,0,.6-3.33,5.3,5.3,0,0,0-1.52-4,5.86,5.86,0,0,0-4.24-1.47,10.62,10.62,0,0,0-3.7.64,14.8,14.8,0,0,0-3.9,2.35l-1.89-2.43a14.44,14.44,0,0,1,9.45-3.61,9.94,9.94,0,0,1,6.94,2.27,7.78,7.78,0,0,1,2.51,6.09A11.68,11.68,0,0,1,48,54.4a37.71,37.71,0,0,1-6.27,7.4l-6.88,6.72v.17H51Z"></path>
    </g>
  </g>
</svg>
