<?xml version="1.0" encoding="UTF-8"?>
<svg xmlns="http://www.w3.org/2000/svg" xmlns:xlink="http://www.w3.org/1999/xlink" id="Layer_1" data-name="Layer 1" viewBox="0 0 80 90" width="80" height="90">
  <defs>
    <style>.cls-1{fill:#fff;}.cls-1,.cls-2,.cls-4{fill-rule:evenodd;}.cls-2{fill:#d7d925;}.cls-3{mask:url(#mask);}.cls-5{isolation:isolate;}</style>
    <mask id="mask" x="0" y="0.14" width="79.82" height="89.75" maskUnits="userSpaceOnUse">
      <g id="a">
        <path class="cls-1" d="M0,.14H79.82V89.82H0Z"></path>
      </g>
    </mask>
  </defs>
  <title>cal3</title>
  <path class="cls-1" d="M2.39,87.5h75V26.8h-75Z"></path>
  <path class="cls-2" d="M69.6,12.44a5.31,5.31,0,0,1-10.61,0V9.93H53.34v2.51a5.31,5.31,0,0,1-10.61,0V9.93H37.09v2.51a5.31,5.31,0,0,1-10.61,0V9.93H20.83v2.51a5.31,5.31,0,0,1-10.61,0V9.93H2.39V24.41h75V9.93H69.6Z"></path>
  <g class="cls-3">
    <path class="cls-4" d="M77.43,24.41h-75V9.93h7.83v2.51a5.31,5.31,0,0,0,10.61,0V9.93h5.65v2.51a5.3,5.3,0,1,0,10.6,0V9.93h5.65v2.51a5.31,5.31,0,0,0,10.61,0V9.93H59v2.51a5.31,5.31,0,0,0,10.61,0V9.93h7.83ZM2.39,87.5h75V26.8h-75Zm10.1-82a3,3,0,0,1,6.07,0v6.93a3,3,0,0,1-6.07,0Zm16.26,0a3,3,0,0,1,6.06,0v6.93a3,3,0,0,1-6.06,0ZM45,5.51a3,3,0,0,1,6.07,0v6.93a3,3,0,0,1-6.07,0Zm16.26,0a3,3,0,0,1,6.07,0v6.93a3,3,0,0,1-6.07,0Zm17.36,2h-9v-2A5.31,5.31,0,0,0,59,5.51v2H53.34v-2a5.31,5.31,0,0,0-10.61,0v2H37.08v-2a5.3,5.3,0,1,0-10.6,0v2H20.83v-2a5.31,5.31,0,0,0-10.61,0v2h-9A1.19,1.19,0,0,0,0,8.74v80a1.19,1.19,0,0,0,1.19,1.2H78.62a1.2,1.2,0,0,0,1.2-1.2V8.74A1.2,1.2,0,0,0,78.62,7.54Z"></path>
  </g>
  <path class="cls-1" d="M15.52,2.48a3,3,0,0,0-3,3v6.93a3,3,0,0,0,6.07,0V5.51a3,3,0,0,0-3-3m16.26,0a3,3,0,0,0-3,3v6.93a3,3,0,0,0,6.07,0V5.51a3,3,0,0,0-3-3M48,2.48a3,3,0,0,0-3,3v6.93a3,3,0,0,0,6.07,0V5.51a3,3,0,0,0-3-3m19.29,3v6.93a3,3,0,0,1-6.07,0V5.51a3,3,0,0,1,6.07,0"></path>
  <g class="cls-5">
    <g class="cls-5">
      <path d="M49.81,48a7.17,7.17,0,0,1-1.69,4.92,8.44,8.44,0,0,1-4.78,2.56v.17A9,9,0,0,1,49,58a7.08,7.08,0,0,1,1.82,5.07A8.23,8.23,0,0,1,47.66,70q-3.12,2.42-8.85,2.42a25.66,25.66,0,0,1-4.57-.38,15.6,15.6,0,0,1-4-1.32V67.34a19.67,19.67,0,0,0,4.35,1.53,19.21,19.21,0,0,0,4.37.53q8.15,0,8.15-6.38,0-5.72-9-5.72H35V54.23h3.14A9.44,9.44,0,0,0,44,52.61a5.33,5.33,0,0,0,2.15-4.5,4.45,4.45,0,0,0-1.58-3.61,6.51,6.51,0,0,0-4.28-1.31,13.25,13.25,0,0,0-3.89.56,17.33,17.33,0,0,0-4.17,2.06L30.38,43.4A15.25,15.25,0,0,1,34.84,41a16.22,16.22,0,0,1,5.32-.87,10.9,10.9,0,0,1,7.11,2.09A7.08,7.08,0,0,1,49.81,48Z"></path>
    </g>
  </g>
</svg>
